<svg width="305" height="250" viewBox="0 0 305 250" fill="none" xmlns="http://www.w3.org/2000/svg">
<g id="collect" clip-path="url(#clip0)">
<circle id="bg3" cx="97.5" cy="117.5" r="106.5" fill="url(#paint0_radial)"/>
<circle id="bg2" cx="88.5" cy="175.5" r="88.5" fill="url(#paint1_radial)"/>
<circle id="bg1" cx="176.5" cy="106.5" r="106.5" fill="url(#paint2_radial)"/>
<g id="slack">
<circle id="Ellipse 1" cx="66.8561" cy="63.8561" r="44.5162" transform="rotate(-12.0957 66.8561 63.8561)" fill="url(#paint3_radial)"/>
<g id="slack_2" clip-path="url(#clip1)">
<g id="Group">
<path id="Vector" fill-rule="evenodd" clip-rule="evenodd" d="M53.3007 72.4536C53.4477 73.1368 53.4585 73.8422 53.3325 74.5296C53.2065 75.217 52.9462 75.8727 52.5664 76.4594C52.1867 77.046 51.695 77.552 51.1195 77.9484C50.5439 78.3447 49.8959 78.6237 49.2124 78.7693C48.5295 78.9159 47.8244 78.9265 47.1375 78.8005C46.4505 78.6744 45.7951 78.4142 45.2087 78.0346C44.6224 77.6551 44.1166 77.1637 43.7204 76.5885C43.3241 76.0134 43.045 75.3657 42.8992 74.6827C42.7523 73.9997 42.7415 73.2944 42.8673 72.6072C42.9932 71.92 43.2534 71.2644 43.6329 70.6778C44.0124 70.0912 44.5039 69.5853 45.0792 69.1888C45.6544 68.7924 46.3022 68.5133 46.9854 68.3674L52.1882 67.2524L53.3028 72.4532L53.3007 72.4536ZM55.9011 71.8963C55.7541 71.2133 55.7433 70.5081 55.8692 69.8209C55.9951 69.1337 56.2552 68.478 56.6348 67.8915C57.0143 67.3049 57.5057 66.7989 58.081 66.4025C58.6563 66.006 59.304 65.7269 59.9873 65.5811C60.6703 65.4341 61.3756 65.4233 62.0628 65.5492C62.75 65.6751 63.4056 65.9352 63.9921 66.3148C64.5787 66.6943 65.0847 67.1857 65.4811 67.761C65.8776 68.3363 66.1567 68.984 66.3025 69.6673L69.0893 82.6712C69.2363 83.3542 69.2471 84.0595 69.1212 84.7467C68.9953 85.4339 68.7352 86.0895 68.3556 86.676C67.9761 87.2626 67.4847 87.7686 66.9094 88.165C66.3341 88.5615 65.6864 88.8406 65.0031 88.9864C64.3201 89.1334 63.6148 89.1442 62.9276 89.0183C62.2404 88.8924 61.5848 88.6323 60.9983 88.2528C60.4117 87.8732 59.9057 87.3818 59.5093 86.8065C59.1128 86.2313 58.8337 85.5835 58.6878 84.9002L55.9011 71.8963Z" fill="white"/>
<path id="Vector_2" fill-rule="evenodd" clip-rule="evenodd" d="M56.6264 49.8982C55.9432 50.0452 55.2377 50.056 54.5504 49.93C53.863 49.804 53.2073 49.5437 52.6206 49.164C52.034 48.7842 51.528 48.2925 51.1316 47.717C50.7353 47.1415 50.4563 46.4934 50.3107 45.81C50.1637 45.1269 50.1529 44.4217 50.2788 43.7345C50.4047 43.0473 50.6648 42.3916 51.0444 41.8051C51.4239 41.2185 51.9153 40.7126 52.4906 40.3161C53.0659 39.9197 53.7136 39.6405 54.3969 39.4947C55.0799 39.3477 55.7852 39.3369 56.4724 39.4628C57.1596 39.5887 57.8152 39.8489 58.4017 40.2284C58.9883 40.6079 59.4943 41.0994 59.8907 41.6746C60.2872 42.2499 60.5663 42.8976 60.7121 43.5809L61.8276 48.7858L56.6289 49.8999L56.6264 49.8982ZM57.1921 52.5379C57.8751 52.391 58.5804 52.3801 59.2676 52.506C59.9548 52.6319 60.6104 52.8921 61.1969 53.2716C61.7835 53.6511 62.2895 54.1426 62.6859 54.7178C63.0824 55.2931 63.3615 55.9409 63.5073 56.6241C63.6543 57.3071 63.6651 58.0124 63.5392 58.6996C63.4133 59.3868 63.1532 60.0424 62.7737 60.629C62.3941 61.2155 61.9027 61.7215 61.3274 62.118C60.7522 62.5144 60.1044 62.7935 59.4211 62.9394L46.3779 65.7346C45.6951 65.8815 44.99 65.8923 44.303 65.7666C43.6159 65.6408 42.9604 65.3808 42.3739 65.0015C41.7875 64.6221 41.2815 64.131 40.885 63.556C40.4885 62.981 40.2092 62.3335 40.0631 61.6504C39.9162 60.9674 39.9053 60.2622 40.0312 59.575C40.1571 58.8878 40.4173 58.2321 40.7968 57.6456C41.1763 57.059 41.6678 56.553 42.243 56.1566C42.8183 55.7602 43.4661 55.481 44.1493 55.3352L57.1946 52.5395L57.1921 52.5379Z" fill="white"/>
<path id="Vector_3" fill-rule="evenodd" clip-rule="evenodd" d="M79.1509 53.2716C79.004 52.5885 78.9931 51.883 79.1191 51.1956C79.2451 50.5083 79.5055 49.8525 79.8852 49.2659C80.2649 48.6792 80.7566 48.1733 81.3322 47.7769C81.9077 47.3805 82.5557 47.1015 83.2392 46.9559C83.9222 46.809 84.6275 46.7981 85.3147 46.924C86.0019 47.0499 86.6575 47.3101 87.2441 47.6896C87.8306 48.0691 88.3366 48.5606 88.733 49.1358C89.1295 49.7111 89.4086 50.3589 89.5545 51.0421C89.7014 51.7251 89.7122 52.4304 89.5863 53.1176C89.4605 53.8048 89.2003 54.4604 88.8208 55.047C88.4413 55.6336 87.9498 56.1395 87.3745 56.536C86.7993 56.9324 86.1515 57.2115 85.4683 57.3574L80.2655 58.4724L79.1514 53.2737L79.1509 53.2716ZM76.5506 53.8289C76.6975 54.5119 76.7083 55.2172 76.5824 55.9044C76.4565 56.5916 76.1964 57.2472 75.8169 57.8338C75.4373 58.4203 74.9459 58.9263 74.3706 59.3227C73.7954 59.7192 73.1476 59.9983 72.4644 60.1442C71.7812 60.2914 71.0758 60.3025 70.3884 60.1768C69.701 60.0511 69.0451 59.791 68.4583 59.4115C67.8715 59.032 67.3653 58.5405 66.9687 57.9651C66.5721 57.3898 66.2929 56.7418 66.147 56.0584L63.3518 43.0152C63.2048 42.332 63.194 41.6266 63.32 40.9392C63.446 40.2518 63.7063 39.5961 64.0861 39.0094C64.4658 38.4228 64.9575 37.9168 65.533 37.5204C66.1086 37.1241 66.7566 36.8451 67.4401 36.6995C68.1231 36.5525 68.8284 36.5417 69.5156 36.6676C70.2028 36.7935 70.8584 37.0536 71.445 37.4332C72.0315 37.8127 72.5375 38.3041 72.9339 38.8794C73.3304 39.4547 73.6095 40.1024 73.7554 40.7857L76.551 53.831L76.5506 53.8289Z" fill="white"/>
<path id="Vector_4" fill-rule="evenodd" clip-rule="evenodd" d="M75.8168 75.7877C76.4998 75.6408 77.2051 75.6299 77.8923 75.7558C78.5795 75.8817 79.2351 76.1419 79.8217 76.5214C80.4083 76.9009 80.9142 77.3924 81.3107 77.9676C81.7071 78.5429 81.9862 79.1907 82.1321 79.8739C82.2793 80.557 82.2904 81.2625 82.1647 81.9499C82.039 82.6373 81.7789 83.2932 81.3994 83.88C81.0199 84.4667 80.5284 84.9729 79.9531 85.3695C79.3777 85.7661 78.7298 86.0454 78.0463 86.1912C77.3632 86.3382 76.6577 86.349 75.9703 86.223C75.283 86.097 74.6272 85.8367 74.0406 85.457C73.4539 85.0772 72.948 84.5855 72.5516 84.01C72.1552 83.4345 71.8762 82.7865 71.7306 82.103L70.6161 76.9022L75.8168 75.7877V75.7877ZM75.2596 73.1873C74.5766 73.3343 73.8713 73.3451 73.1841 73.2192C72.4969 73.0933 71.8412 72.8332 71.2547 72.4536C70.6681 72.0741 70.1622 71.5827 69.7657 71.0074C69.3693 70.4322 69.0901 69.7844 68.9443 69.1011C68.7973 68.4181 68.7865 67.7128 68.9124 67.0256C69.0383 66.3385 69.2985 65.6828 69.678 65.0963C70.0575 64.5097 70.549 64.0037 71.1242 63.6073C71.6995 63.2108 72.3473 62.9317 73.0305 62.7859L86.0737 59.9907C86.7567 59.8437 87.462 59.8329 88.1492 59.9588C88.8364 60.0847 89.492 60.3448 90.0786 60.7244C90.6651 61.1039 91.1711 61.5953 91.5675 62.1706C91.964 62.7458 92.2431 63.3936 92.389 64.0769C92.5359 64.7599 92.5467 65.4651 92.4209 66.1523C92.295 66.8395 92.0348 67.4952 91.6553 68.0817C91.2758 68.6683 90.7843 69.1743 90.209 69.5707C89.6338 69.9672 88.986 70.2463 88.3028 70.3921L75.2596 73.1873V73.1873Z" fill="white"/>
</g>
</g>
</g>
<g id="github">
<circle id="Ellipse 1_2" cx="229.808" cy="80.8075" r="50.6547" transform="rotate(10.1765 229.808 80.8075)" fill="url(#paint4_radial)"/>
<g id="uim:github-alt" clip-path="url(#clip2)">
<path id="Vector_5" d="M251.445 67.9709C251.286 67.6711 251.112 67.3799 250.923 67.0983C251.25 66.5232 251.526 65.92 251.746 65.2957C252.468 62.9991 252.552 60.5492 251.99 58.2083C251.99 58.2083 249.349 56.8948 242.284 60.1667C239.697 58.9856 236.96 58.1621 234.15 57.7189C231.334 57.2629 228.469 57.1895 225.633 57.5005C219.951 52.1367 217.025 52.6098 217.025 52.6098C215.774 54.6365 215.094 56.9634 215.055 59.3446C215.066 60.0332 215.144 60.7191 215.287 61.3925C215.024 61.6049 214.757 61.8421 214.519 62.0585C212.295 64.0847 210.849 66.8236 210.429 69.8026C210.31 70.506 210.23 71.2155 210.19 71.9278C209.224 83.0482 216.135 86.7763 222.981 88.687C221.847 89.4467 220.985 90.5477 220.518 91.8304C220.146 92.6761 219.892 93.5688 219.762 94.4836L219.242 97.7344C216.425 97.538 213.641 96.6773 213.154 94.0593C212.586 91.537 211.344 89.2159 209.562 87.3426C209.427 87.2385 209.3 87.1229 209.185 86.9971C209.081 86.5001 208.83 86.0459 208.464 85.6943C208.098 85.3426 207.634 85.11 207.133 85.027L207.121 85.025C206.465 84.9199 205.794 85.0789 205.255 85.4672C204.716 85.8554 204.352 86.4413 204.244 87.0968C203.914 89.1106 205.723 90.7365 206.478 91.3105C207.288 92.4379 207.881 93.7058 208.229 95.0497C208.726 97.7329 210.751 102.015 218.367 102.72L218.333 102.964L218.237 103.631C218.131 104.289 218.292 104.962 218.683 105.502C219.073 106.042 219.663 106.405 220.321 106.51L232.019 108.383C232.677 108.488 233.35 108.328 233.89 107.937C234.43 107.546 234.793 106.957 234.898 106.299C234.898 106.299 236.173 98.4602 236.384 97.145C236.546 96.2355 236.584 95.308 236.494 94.3884L236.492 94.3728L236.499 94.3892C236.491 94.2988 236.47 94.2242 236.459 94.1358C236.379 92.862 235.918 91.6416 235.136 90.6331L235.157 90.69L235.116 90.6324C242.216 90.9549 249.904 89.5134 252.451 78.6969C252.635 78.0077 252.781 77.3089 252.888 76.6035C253.406 73.6464 252.897 70.6008 251.444 67.9734L251.445 67.9709Z" fill="white"/>
</g>
</g>
<g id="bookmark">
<circle id="Ellipse 1_3" cx="229.723" cy="161.461" r="52.3875" transform="rotate(14.0912 229.723 161.461)" fill="url(#paint5_radial)"/>
<g id="bi:bookmark-fill" clip-path="url(#clip3)">
<g id="Group_2">
<path id="Vector_6" fill-rule="evenodd" clip-rule="evenodd" d="M208.285 150.577C207.783 148.706 208.046 146.712 209.014 145.035C209.983 143.358 211.578 142.134 213.449 141.632L234.612 135.962C236.483 135.46 238.477 135.723 240.154 136.691C241.831 137.66 243.055 139.255 243.557 141.126L254.898 183.452L234.427 177.596L219.626 192.903L208.285 150.577Z" fill="white"/>
</g>
</g>
</g>
<g id="twitter">
<circle id="Ellipse 1_4" cx="116.6" cy="169.6" r="70.1965" transform="rotate(-16.3728 116.6 169.6)" fill="url(#paint6_radial)"/>
<g id="ant-design:twitter-outlined">
<path id="Vector_7" d="M154.819 152.159C152.07 152.952 149.131 153.4 146.17 153.344C149.432 151.928 152.065 149.37 153.575 146.151C150.514 147.482 147.245 148.272 143.914 148.488C142.74 146.862 141.244 145.496 139.519 144.474C137.794 143.452 135.876 142.796 133.887 142.548C125.839 141.524 118.537 147.224 117.519 155.23C117.376 156.354 117.369 157.495 117.453 158.605C105.482 156.442 95.4669 149.318 89.4427 139.595C87.858 141.653 86.8537 144.099 86.5343 146.677C85.8931 151.718 87.8911 156.49 91.4676 159.601C89.1755 159.218 87.0064 158.298 85.1366 156.918L85.1138 157.097C84.2159 164.157 88.4624 170.643 94.9425 172.834C93.6524 173 92.3466 173.002 91.0558 172.842C90.1105 172.721 89.2282 172.514 88.3417 172.272C89.4491 178.263 94.274 183.125 100.635 184.073C95.1477 187.347 88.6043 188.852 81.8167 187.988C80.5989 187.833 79.4802 187.648 78.3308 187.363C84.2438 192.312 91.5796 195.669 99.8064 196.715C126.514 200.112 143.942 179.845 146.384 160.641C146.464 160.01 146.544 159.38 146.582 158.744C149.673 157.035 152.477 154.786 154.819 152.159Z" fill="white"/>
</g>
</g>
</g>
<defs>
<radialGradient id="paint0_radial" cx="0" cy="0" r="1" gradientUnits="userSpaceOnUse" gradientTransform="translate(97.5 117.5) rotate(90) scale(106.5)">
<stop offset="0.625" stop-color="#8B5CF6" stop-opacity="0.15"/>
<stop offset="1" stop-color="white" stop-opacity="0"/>
</radialGradient>
<radialGradient id="paint1_radial" cx="0" cy="0" r="1" gradientUnits="userSpaceOnUse" gradientTransform="translate(88.5 175.5) rotate(90) scale(88.5)">
<stop offset="0.625" stop-color="#81C2FF" stop-opacity="0.15"/>
<stop offset="1" stop-color="white" stop-opacity="0"/>
</radialGradient>
<radialGradient id="paint2_radial" cx="0" cy="0" r="1" gradientUnits="userSpaceOnUse" gradientTransform="translate(176.5 106.5) rotate(90) scale(106.5)">
<stop offset="0.625" stop-color="#F65C5C" stop-opacity="0.15"/>
<stop offset="1" stop-color="white" stop-opacity="0"/>
</radialGradient>
<radialGradient id="paint3_radial" cx="0" cy="0" r="1" gradientUnits="userSpaceOnUse" gradientTransform="translate(66.8561 63.8561) rotate(90) scale(44.5162)">
<stop stop-color="#C485C7"/>
<stop offset="1" stop-color="#914E94"/>
</radialGradient>
<radialGradient id="paint4_radial" cx="0" cy="0" r="1" gradientUnits="userSpaceOnUse" gradientTransform="translate(229.808 80.8075) rotate(90) scale(50.6547)">
<stop stop-color="#626262" stop-opacity="0.79"/>
<stop offset="1" stop-opacity="0.9"/>
</radialGradient>
<radialGradient id="paint5_radial" cx="0" cy="0" r="1" gradientUnits="userSpaceOnUse" gradientTransform="translate(229.723 161.461) rotate(90) scale(52.3875)">
<stop stop-color="#89D3E3"/>
<stop offset="1" stop-color="#46E2A1"/>
</radialGradient>
<radialGradient id="paint6_radial" cx="0" cy="0" r="1" gradientUnits="userSpaceOnUse" gradientTransform="translate(116.6 169.6) rotate(90) scale(70.1966)">
<stop stop-color="#ACDFFF"/>
<stop offset="1" stop-color="#35AFFA"/>
</radialGradient>
<clipPath id="clip0">
<rect width="305" height="250" fill="white"/>
</clipPath>
<clipPath id="clip1">
<rect width="50.7763" height="50.7763" fill="white" transform="translate(36.1529 43.4044) rotate(-12.0957)"/>
</clipPath>
<clipPath id="clip2">
<rect width="60.3159" height="60.3159" fill="white" transform="translate(203.87 45.3344) rotate(9.09684)"/>
</clipPath>
<clipPath id="clip3">
<rect width="58.426" height="58.426" fill="white" transform="translate(194.868 142.831) rotate(-15)"/>
</clipPath>
</defs>
</svg>
