<svg width="758" height="533" viewBox="0 0 758 533" fill="none" xmlns="http://www.w3.org/2000/svg">
<g clip-path="url(#clip0)">
<circle cx="281.5" cy="316.5" r="241.5" fill="url(#paint0_radial)"/>
<circle cx="201" cy="220" r="201" fill="url(#paint1_radial)"/>
<circle cx="460.5" cy="291.5" r="241.5" fill="url(#paint2_radial)"/>
<circle cx="418.237" cy="79.7066" r="44.5162" transform="rotate(-12.0957 418.237 79.7066)" fill="url(#paint3_radial)"/>
<g clip-path="url(#clip1)">
<path fill-rule="evenodd" clip-rule="evenodd" d="M404.682 88.3039C404.829 88.9871 404.839 89.6926 404.713 90.3799C404.587 91.0673 404.327 91.7231 403.947 92.3097C403.568 92.8963 403.076 93.4023 402.5 93.7987C401.925 94.1951 401.277 94.474 400.593 94.6197C399.91 94.7663 399.205 94.7769 398.518 94.6508C397.831 94.5247 397.176 94.2645 396.59 93.8849C396.003 93.5054 395.497 93.014 395.101 92.4389C394.705 91.8637 394.426 91.2161 394.28 90.533C394.133 89.85 394.122 89.1447 394.248 88.4575C394.374 87.7703 394.634 87.1147 395.014 86.5281C395.393 85.9416 395.885 85.4356 396.46 85.0392C397.035 84.6427 397.683 84.3636 398.366 84.2177L403.569 83.1028L404.684 88.3035L404.682 88.3039ZM407.282 87.7467C407.135 87.0637 407.124 86.3584 407.25 85.6712C407.376 84.984 407.636 84.3284 408.016 83.7418C408.395 83.1553 408.887 82.6493 409.462 82.2528C410.037 81.8564 410.685 81.5773 411.368 81.4314C412.051 81.2845 412.756 81.2736 413.444 81.3995C414.131 81.5254 414.786 81.7856 415.373 82.1651C415.96 82.5446 416.466 83.0361 416.862 83.6113C417.258 84.1866 417.538 84.8344 417.683 85.5176L420.47 98.5215C420.617 99.2045 420.628 99.9098 420.502 100.597C420.376 101.284 420.116 101.94 419.736 102.526C419.357 103.113 418.865 103.619 418.29 104.015C417.715 104.412 417.067 104.691 416.384 104.837C415.701 104.984 414.996 104.995 414.308 104.869C413.621 104.743 412.966 104.483 412.379 104.103C411.793 103.724 411.287 103.232 410.89 102.657C410.494 102.082 410.215 101.434 410.069 100.751L407.282 87.7467Z" fill="white"/>
<path fill-rule="evenodd" clip-rule="evenodd" d="M408.007 65.7486C407.324 65.8955 406.619 65.9063 405.931 65.7804C405.244 65.6544 404.588 65.394 404.001 65.0143C403.415 64.6346 402.909 64.1429 402.512 63.5673C402.116 62.9918 401.837 62.3438 401.691 61.6603C401.545 60.9773 401.534 60.272 401.66 59.5848C401.785 58.8976 402.046 58.242 402.425 57.6554C402.805 57.0689 403.296 56.5629 403.871 56.1665C404.447 55.77 405.094 55.4909 405.778 55.345C406.461 55.1981 407.166 55.1873 407.853 55.3132C408.54 55.439 409.196 55.6992 409.783 56.0787C410.369 56.4582 410.875 56.9497 411.271 57.525C411.668 58.1002 411.947 58.748 412.093 59.4312L413.208 64.6361L408.01 65.7502L408.007 65.7486ZM408.573 68.3882C409.256 68.2413 409.961 68.2305 410.648 68.3564C411.336 68.4823 411.991 68.7424 412.578 69.1219C413.164 69.5015 413.67 69.9929 414.067 70.5682C414.463 71.1434 414.742 71.7912 414.888 72.4744C415.035 73.1575 415.046 73.8627 414.92 74.5499C414.794 75.2371 414.534 75.8928 414.154 76.4793C413.775 77.0659 413.283 77.5719 412.708 77.9683C412.133 78.3647 411.485 78.6439 410.802 78.7897L397.759 81.5849C397.076 81.7318 396.371 81.7427 395.684 81.6169C394.997 81.4911 394.341 81.2311 393.755 80.8518C393.168 80.4725 392.662 79.9813 392.266 79.4063C391.869 78.8313 391.59 78.1838 391.444 77.5008C391.297 76.8178 391.286 76.1125 391.412 75.4253C391.538 74.7381 391.798 74.0825 392.178 73.4959C392.557 72.9094 393.049 72.4034 393.624 72.0069C394.199 71.6105 394.847 71.3314 395.53 71.1855L408.575 68.3899L408.573 68.3882Z" fill="white"/>
<path fill-rule="evenodd" clip-rule="evenodd" d="M430.532 69.122C430.385 68.4388 430.374 67.7333 430.5 67.046C430.626 66.3586 430.886 65.7029 431.266 65.1162C431.646 64.5296 432.137 64.0236 432.713 63.6272C433.288 63.2309 433.936 62.9519 434.62 62.8063C435.303 62.6593 436.008 62.6485 436.695 62.7744C437.383 62.9003 438.038 63.1604 438.625 63.54C439.211 63.9195 439.717 64.4109 440.114 64.9862C440.51 65.5614 440.789 66.2092 440.935 66.8925C441.082 67.5755 441.093 68.2807 440.967 68.9679C440.841 69.6551 440.581 70.3108 440.202 70.8973C439.822 71.4839 439.331 71.9899 438.755 72.3863C438.18 72.7828 437.532 73.0619 436.849 73.2077L431.646 74.3227L430.532 69.124L430.532 69.122ZM427.931 69.6792C428.078 70.3623 428.089 71.0675 427.963 71.7547C427.837 72.4419 427.577 73.0976 427.198 73.6841C426.818 74.2707 426.327 74.7766 425.751 75.1731C425.176 75.5695 424.528 75.8487 423.845 75.9945C423.162 76.1418 422.457 76.1528 421.769 76.0271C421.082 75.9014 420.426 75.6413 419.839 75.2618C419.252 74.8823 418.746 74.3908 418.35 73.8155C417.953 73.2401 417.674 72.5922 417.528 71.9088L414.733 58.8655C414.586 58.1824 414.575 57.4769 414.701 56.7895C414.827 56.1022 415.087 55.4464 415.467 54.8598C415.847 54.2731 416.338 53.7672 416.914 53.3708C417.489 52.9744 418.137 52.6954 418.821 52.5498C419.504 52.4029 420.209 52.392 420.896 52.5179C421.584 52.6438 422.239 52.904 422.826 53.2835C423.412 53.663 423.918 54.1545 424.315 54.7297C424.711 55.305 424.99 55.9528 425.136 56.636L427.932 69.6813L427.931 69.6792Z" fill="white"/>
<path fill-rule="evenodd" clip-rule="evenodd" d="M427.198 91.638C427.881 91.4911 428.586 91.4803 429.273 91.6062C429.96 91.7321 430.616 91.9922 431.203 92.3717C431.789 92.7513 432.295 93.2427 432.691 93.818C433.088 94.3932 433.367 95.041 433.513 95.7243C433.66 96.4074 433.671 97.1128 433.546 97.8002C433.42 98.4877 433.16 99.1435 432.78 99.7303C432.401 100.317 431.909 100.823 431.334 101.22C430.759 101.616 430.111 101.896 429.427 102.042C428.744 102.189 428.039 102.199 427.351 102.073C426.664 101.947 426.008 101.687 425.421 101.307C424.835 100.928 424.329 100.436 423.932 99.8604C423.536 99.2848 423.257 98.6368 423.111 97.9533L421.997 92.7526L427.198 91.638V91.638ZM426.64 89.0377C425.957 89.1846 425.252 89.1954 424.565 89.0696C423.878 88.9437 423.222 88.6835 422.636 88.304C422.049 87.9245 421.543 87.433 421.147 86.8578C420.75 86.2825 420.471 85.6347 420.325 84.9515C420.178 84.2685 420.167 83.5632 420.293 82.876C420.419 82.1888 420.679 81.5332 421.059 80.9466C421.438 80.36 421.93 79.8541 422.505 79.4576C423.08 79.0612 423.728 78.7821 424.411 78.6362L437.455 75.841C438.138 75.6941 438.843 75.6832 439.53 75.8091C440.217 75.935 440.873 76.1952 441.459 76.5747C442.046 76.9542 442.552 77.4457 442.948 78.0209C443.345 78.5962 443.624 79.244 443.77 79.9272C443.917 80.6102 443.928 81.3155 443.802 82.0027C443.676 82.6899 443.416 83.3455 443.036 83.9321C442.657 84.5186 442.165 85.0246 441.59 85.4211C441.015 85.8175 440.367 86.0966 439.684 86.2425L426.64 89.0377V89.0377Z" fill="white"/>
</g>
<circle cx="249.057" cy="97.5263" r="40.3809" transform="rotate(52.0467 249.057 97.5263)" fill="url(#paint4_radial)"/>
<g clip-path="url(#clip2)">
<path fill-rule="evenodd" clip-rule="evenodd" d="M241.187 80.7473C241.77 79.3726 242.874 78.2854 244.258 77.725C245.642 77.1647 247.192 77.177 248.566 77.7593L264.117 84.346C265.492 84.9283 266.579 86.0329 267.14 87.4167C267.7 88.8006 267.688 90.3504 267.105 91.7252L253.932 122.827L244.266 109.563L228.014 111.849L241.187 80.7473Z" fill="white"/>
</g>
<circle cx="218.808" cy="169.808" r="50.6547" transform="rotate(10.1765 218.808 169.808)" fill="url(#paint5_radial)"/>
<g clip-path="url(#clip3)">
<path d="M240.445 156.971C240.286 156.671 240.112 156.38 239.923 156.098C240.25 155.523 240.526 154.92 240.746 154.296C241.468 151.999 241.552 149.549 240.99 147.208C240.99 147.208 238.349 145.895 231.284 149.167C228.697 147.986 225.96 147.162 223.15 146.719C220.334 146.263 217.469 146.189 214.633 146.5C208.951 141.137 206.025 141.61 206.025 141.61C204.774 143.636 204.094 145.963 204.055 148.345C204.066 149.033 204.144 149.719 204.287 150.392C204.024 150.605 203.757 150.842 203.519 151.058C201.295 153.085 199.849 155.824 199.429 158.802C199.31 159.506 199.23 160.215 199.19 160.928C198.224 172.048 205.135 175.776 211.981 177.687C210.847 178.447 209.985 179.548 209.518 180.83C209.146 181.676 208.892 182.569 208.762 183.484L208.242 186.734C205.425 186.538 202.641 185.677 202.154 183.059C201.586 180.537 200.344 178.216 198.562 176.343C198.427 176.238 198.3 176.123 198.185 175.997C198.081 175.5 197.83 175.046 197.464 174.694C197.098 174.343 196.634 174.11 196.133 174.027L196.121 174.025C195.465 173.92 194.794 174.079 194.255 174.467C193.716 174.855 193.352 175.441 193.244 176.097C192.914 178.111 194.723 179.736 195.478 180.31C196.288 181.438 196.881 182.706 197.229 184.05C197.726 186.733 199.751 191.015 207.367 191.72L207.333 191.964L207.237 192.631C207.131 193.289 207.292 193.962 207.683 194.502C208.073 195.042 208.663 195.404 209.321 195.51L221.019 197.383C221.677 197.488 222.35 197.328 222.89 196.937C223.43 196.546 223.793 195.957 223.898 195.299C223.898 195.299 225.173 187.46 225.384 186.145C225.546 185.235 225.584 184.308 225.494 183.388L225.492 183.373L225.499 183.389C225.491 183.299 225.47 183.224 225.459 183.136C225.379 181.862 224.918 180.642 224.136 179.633L224.157 179.69L224.116 179.632C231.216 179.955 238.904 178.513 241.451 167.697C241.635 167.008 241.781 166.309 241.888 165.603C242.406 162.646 241.897 159.601 240.444 156.973L240.445 156.971Z" fill="white"/>
</g>
<circle cx="549.846" cy="148.846" r="76.5187" transform="rotate(14.0912 549.846 148.846)" fill="url(#paint6_radial)"/>
<g clip-path="url(#clip4)">
<path fill-rule="evenodd" clip-rule="evenodd" d="M518.533 132.948C517.801 130.215 518.184 127.303 519.599 124.853C521.013 122.403 523.343 120.615 526.076 119.883L556.987 111.6C559.72 110.868 562.632 111.251 565.082 112.666C567.532 114.08 569.32 116.41 570.052 119.143L586.618 180.966L556.717 172.413L535.098 194.771L518.533 132.948Z" fill="white"/>
</g>
<circle cx="346.137" cy="153.137" r="70.1965" transform="rotate(-16.3728 346.137 153.137)" fill="url(#paint7_radial)"/>
<path d="M384.356 135.697C381.607 136.489 378.669 136.938 375.707 136.881C378.969 135.465 381.603 132.908 383.113 129.688C380.052 131.019 376.783 131.81 373.452 132.025C372.278 130.4 370.782 129.033 369.056 128.012C367.331 126.99 365.414 126.334 363.424 126.085C355.376 125.062 348.074 130.762 347.056 138.767C346.913 139.892 346.907 141.033 346.99 142.143C335.02 139.98 325.005 132.856 318.98 123.133C317.396 125.191 316.391 127.636 316.072 130.214C315.431 135.256 317.429 140.027 321.005 143.139C318.713 142.755 316.544 141.836 314.674 140.456L314.651 140.635C313.754 147.695 318 154.18 324.48 156.372C323.19 156.537 321.884 156.54 320.593 156.379C319.648 156.259 318.766 156.052 317.879 155.809C318.987 161.8 323.812 166.663 330.173 167.61C324.685 170.885 318.142 172.389 311.354 171.526C310.137 171.371 309.018 171.185 307.868 170.901C313.781 175.85 321.117 179.206 329.344 180.252C356.051 183.649 373.479 163.382 375.922 144.178C376.002 143.548 376.082 142.918 376.12 142.282C379.21 140.572 382.015 138.324 384.356 135.697Z" fill="white"/>
<g filter="url(#filter0_d)">
<rect x="411" y="201" width="291" height="220" rx="21" fill="white"/>
</g>
<ellipse cx="449.864" cy="265.637" rx="10" ry="9.95332" transform="rotate(-12.0957 449.864 265.637)" fill="url(#paint8_radial)"/>
<g clip-path="url(#clip5)">
<path fill-rule="evenodd" clip-rule="evenodd" d="M446.817 267.563C446.85 267.715 446.852 267.873 446.824 268.027C446.796 268.181 446.737 268.327 446.652 268.459C446.566 268.59 446.456 268.703 446.326 268.792C446.197 268.881 446.051 268.943 445.898 268.976C445.744 269.009 445.586 269.011 445.432 268.983C445.277 268.955 445.13 268.897 444.999 268.812C444.867 268.728 444.754 268.618 444.665 268.489C444.576 268.361 444.513 268.216 444.481 268.063C444.448 267.911 444.446 267.753 444.474 267.599C444.502 267.445 444.561 267.299 444.646 267.167C444.732 267.036 444.842 266.923 444.972 266.834C445.101 266.745 445.246 266.683 445.4 266.65L446.569 266.4L446.818 267.562L446.817 267.563ZM447.401 267.437C447.369 267.285 447.366 267.127 447.395 266.973C447.423 266.82 447.482 266.673 447.567 266.542C447.652 266.41 447.763 266.297 447.892 266.208C448.022 266.119 448.167 266.057 448.321 266.024C448.474 265.991 448.632 265.989 448.787 266.017C448.941 266.045 449.088 266.103 449.22 266.187C449.351 266.272 449.465 266.382 449.554 266.51C449.643 266.639 449.705 266.784 449.738 266.937L450.361 269.844C450.394 269.997 450.396 270.155 450.368 270.308C450.339 270.462 450.281 270.609 450.195 270.74C450.11 270.871 450 270.984 449.87 271.073C449.741 271.162 449.596 271.225 449.442 271.257C449.289 271.29 449.13 271.293 448.976 271.265C448.822 271.237 448.674 271.179 448.543 271.094C448.411 271.009 448.298 270.9 448.209 270.771C448.12 270.642 448.057 270.498 448.025 270.345L447.401 267.437Z" fill="white"/>
<path fill-rule="evenodd" clip-rule="evenodd" d="M447.569 262.518C447.416 262.551 447.257 262.553 447.103 262.525C446.949 262.497 446.801 262.439 446.67 262.354C446.538 262.27 446.424 262.16 446.336 262.031C446.247 261.902 446.184 261.758 446.152 261.605C446.119 261.452 446.116 261.294 446.145 261.141C446.173 260.987 446.232 260.84 446.317 260.709C446.403 260.578 446.513 260.464 446.642 260.376C446.772 260.287 446.917 260.224 447.071 260.192C447.224 260.159 447.383 260.156 447.537 260.184C447.691 260.212 447.838 260.27 447.97 260.355C448.102 260.44 448.215 260.549 448.304 260.678C448.393 260.806 448.456 260.951 448.488 261.104L448.738 262.268L447.57 262.518L447.569 262.518ZM447.696 263.108C447.849 263.075 448.007 263.072 448.162 263.1C448.316 263.128 448.463 263.186 448.595 263.271C448.727 263.356 448.84 263.466 448.929 263.594C449.018 263.723 449.081 263.868 449.113 264.02C449.146 264.173 449.148 264.331 449.12 264.484C449.091 264.638 449.033 264.785 448.947 264.916C448.862 265.047 448.752 265.161 448.622 265.249C448.493 265.338 448.348 265.401 448.194 265.434L445.264 266.061C445.111 266.094 444.952 266.097 444.798 266.069C444.644 266.041 444.497 265.983 444.365 265.898C444.233 265.814 444.12 265.704 444.031 265.575C443.942 265.447 443.879 265.302 443.847 265.149C443.814 264.997 443.812 264.839 443.84 264.685C443.868 264.532 443.927 264.385 444.012 264.254C444.098 264.122 444.208 264.009 444.337 263.92C444.467 263.832 444.612 263.769 444.766 263.736L447.696 263.108L447.696 263.108Z" fill="white"/>
<path fill-rule="evenodd" clip-rule="evenodd" d="M452.627 263.267C452.594 263.115 452.592 262.957 452.621 262.803C452.649 262.649 452.708 262.503 452.793 262.371C452.878 262.24 452.989 262.127 453.118 262.038C453.248 261.949 453.393 261.887 453.547 261.854C453.7 261.821 453.859 261.818 454.013 261.846C454.167 261.874 454.314 261.932 454.446 262.017C454.578 262.102 454.691 262.212 454.78 262.34C454.869 262.469 454.932 262.614 454.964 262.766C454.997 262.919 454.999 263.077 454.971 263.231C454.943 263.384 454.884 263.531 454.799 263.662C454.713 263.793 454.603 263.907 454.473 263.996C454.344 264.084 454.199 264.147 454.045 264.18L452.876 264.43L452.627 263.268L452.627 263.267ZM452.043 263.392C452.076 263.545 452.078 263.703 452.05 263.857C452.021 264.01 451.963 264.157 451.877 264.288C451.792 264.42 451.682 264.533 451.552 264.622C451.423 264.71 451.278 264.773 451.124 264.806C450.971 264.839 450.812 264.841 450.658 264.813C450.503 264.785 450.356 264.727 450.224 264.643C450.093 264.558 449.979 264.448 449.89 264.32C449.801 264.191 449.739 264.046 449.706 263.893L449.081 260.977C449.048 260.824 449.046 260.666 449.074 260.513C449.103 260.359 449.161 260.212 449.247 260.081C449.332 259.95 449.443 259.836 449.572 259.748C449.702 259.659 449.847 259.596 450.001 259.564C450.154 259.531 450.312 259.528 450.467 259.556C450.621 259.584 450.768 259.642 450.9 259.727C451.032 259.812 451.145 259.921 451.234 260.05C451.323 260.179 451.386 260.323 451.418 260.476L452.043 263.393L452.043 263.392Z" fill="white"/>
<path fill-rule="evenodd" clip-rule="evenodd" d="M451.874 268.303C452.027 268.27 452.186 268.268 452.34 268.296C452.494 268.324 452.641 268.382 452.773 268.467C452.905 268.551 453.018 268.661 453.107 268.79C453.196 268.918 453.259 269.063 453.291 269.216C453.324 269.369 453.326 269.526 453.298 269.68C453.27 269.834 453.211 269.981 453.126 270.112C453.04 270.243 452.93 270.356 452.801 270.445C452.671 270.534 452.526 270.597 452.372 270.629C452.219 270.662 452.06 270.665 451.906 270.637C451.752 270.609 451.604 270.551 451.473 270.466C451.341 270.381 451.227 270.271 451.139 270.143C451.05 270.014 450.987 269.869 450.955 269.716L450.705 268.554L451.874 268.303V268.303ZM451.749 267.722C451.596 267.755 451.437 267.757 451.283 267.729C451.129 267.701 450.981 267.643 450.85 267.559C450.718 267.474 450.605 267.364 450.516 267.236C450.427 267.107 450.364 266.962 450.332 266.809C450.299 266.657 450.296 266.499 450.325 266.345C450.353 266.192 450.412 266.045 450.497 265.914C450.583 265.782 450.693 265.669 450.822 265.58C450.952 265.492 451.097 265.429 451.251 265.396L454.181 264.768C454.334 264.735 454.492 264.733 454.647 264.761C454.801 264.789 454.948 264.847 455.08 264.932C455.212 265.016 455.325 265.126 455.414 265.255C455.503 265.383 455.566 265.528 455.598 265.681C455.631 265.834 455.633 265.991 455.605 266.145C455.576 266.299 455.518 266.445 455.433 266.577C455.347 266.708 455.237 266.821 455.107 266.91C454.978 266.999 454.833 267.061 454.679 267.094L451.749 267.722V267.722Z" fill="white"/>
</g>
<ellipse cx="450.011" cy="321.969" rx="10" ry="10.3652" transform="rotate(10.1765 450.011 321.969)" fill="url(#paint9_radial)"/>
<g clip-path="url(#clip6)">
<path d="M454.304 319.318C454.273 319.257 454.239 319.198 454.202 319.14C454.267 319.022 454.322 318.899 454.367 318.771C454.512 318.3 454.532 317.8 454.424 317.322C454.424 317.322 453.903 317.057 452.503 317.734C451.993 317.496 451.453 317.331 450.898 317.244C450.342 317.154 449.776 317.143 449.215 317.21C448.099 316.121 447.52 316.221 447.52 316.221C447.27 316.637 447.133 317.114 447.123 317.6C447.124 317.741 447.138 317.881 447.166 318.019C447.114 318.062 447.061 318.111 447.013 318.156C446.571 318.573 446.282 319.134 446.195 319.744C446.171 319.888 446.154 320.033 446.145 320.178C445.94 322.453 447.302 323.206 448.652 323.588C448.427 323.745 448.255 323.971 448.161 324.234C448.087 324.407 448.036 324.59 448.009 324.777L447.902 325.442C447.345 325.405 446.796 325.233 446.703 324.698C446.594 324.184 446.352 323.711 446.002 323.33C445.975 323.309 445.95 323.285 445.928 323.26C445.908 323.158 445.859 323.066 445.787 322.995C445.715 322.923 445.623 322.876 445.525 322.86L445.522 322.859C445.393 322.839 445.26 322.872 445.153 322.952C445.046 323.032 444.973 323.152 444.951 323.286C444.883 323.699 445.239 324.029 445.387 324.145C445.546 324.374 445.662 324.633 445.729 324.907C445.823 325.455 446.218 326.328 447.723 326.462L447.716 326.512L447.696 326.649C447.674 326.783 447.705 326.921 447.782 327.03C447.858 327.14 447.974 327.214 448.104 327.234L450.414 327.603C450.544 327.623 450.677 327.59 450.784 327.509C450.891 327.428 450.964 327.308 450.985 327.173C450.985 327.173 451.247 325.569 451.291 325.3C451.324 325.114 451.332 324.924 451.316 324.736L451.315 324.733L451.317 324.737C451.315 324.718 451.311 324.703 451.309 324.685C451.295 324.425 451.205 324.176 451.052 323.971L451.056 323.982L451.048 323.97C452.451 324.027 453.972 323.723 454.489 321.509C454.526 321.368 454.556 321.225 454.578 321.081C454.684 320.476 454.587 319.854 454.304 319.318L454.304 319.318Z" fill="white"/>
</g>
<circle cx="450.264" cy="238.134" r="10" transform="rotate(14.0912 450.264 238.134)" fill="url(#paint10_radial)"/>
<g clip-path="url(#clip7)">
<path fill-rule="evenodd" clip-rule="evenodd" d="M446.172 236.056C446.077 235.699 446.127 235.318 446.311 234.998C446.496 234.678 446.801 234.444 447.158 234.349L451.198 233.266C451.555 233.17 451.935 233.221 452.256 233.405C452.576 233.59 452.809 233.895 452.905 234.252L455.07 242.331L451.162 241.214L448.337 244.135L446.172 236.056Z" fill="white"/>
</g>
<circle cx="451.889" cy="351.796" r="10" transform="rotate(57.7083 451.889 351.796)" fill="url(#paint11_radial)"/>
<g clip-path="url(#clip8)">
<path fill-rule="evenodd" clip-rule="evenodd" d="M450.36 347.468C450.537 347.144 450.835 346.903 451.19 346.799C451.545 346.694 451.926 346.735 452.251 346.912L455.922 348.915C456.247 349.093 456.488 349.391 456.592 349.746C456.696 350.101 456.656 350.482 456.478 350.807L452.472 358.15L450.414 354.645L446.353 354.811L450.36 347.468Z" fill="white"/>
</g>
<circle cx="451.889" cy="383.796" r="10" transform="rotate(57.7083 451.889 383.796)" fill="url(#paint12_radial)"/>
<g clip-path="url(#clip9)">
<path fill-rule="evenodd" clip-rule="evenodd" d="M450.36 379.468C450.537 379.144 450.835 378.903 451.19 378.799C451.545 378.694 451.926 378.735 452.251 378.912L455.922 380.915C456.247 381.093 456.488 381.391 456.592 381.746C456.696 382.101 456.656 382.482 456.478 382.807L452.472 390.15L450.414 386.645L446.353 386.811L450.36 379.468Z" fill="white"/>
</g>
<circle cx="450.413" cy="293.776" r="10" transform="rotate(-16.3728 450.413 293.776)" fill="url(#paint13_radial)"/>
<g clip-path="url(#clip10)">
<path d="M455.858 291.291C455.466 291.404 455.048 291.468 454.626 291.46C455.091 291.258 455.466 290.894 455.681 290.435C455.245 290.625 454.779 290.737 454.305 290.768C454.137 290.536 453.924 290.342 453.678 290.196C453.433 290.051 453.159 289.957 452.876 289.922C451.73 289.776 450.689 290.588 450.544 291.728C450.524 291.889 450.523 292.051 450.535 292.209C448.83 291.901 447.403 290.886 446.545 289.501C446.319 289.794 446.176 290.143 446.13 290.51C446.039 291.228 446.324 291.908 446.833 292.351C446.507 292.297 446.198 292.166 445.931 291.969L445.928 291.994C445.8 293 446.405 293.924 447.328 294.236C447.144 294.26 446.958 294.26 446.774 294.237C446.64 294.22 446.514 294.191 446.388 294.156C446.546 295.01 447.233 295.702 448.139 295.837C447.357 296.304 446.425 296.518 445.458 296.395C445.285 296.373 445.125 296.347 444.962 296.306C445.804 297.011 446.849 297.489 448.021 297.638C451.826 298.122 454.308 295.235 454.656 292.499C454.668 292.409 454.679 292.32 454.685 292.229C455.125 291.986 455.524 291.665 455.858 291.291Z" fill="white"/>
</g>
<rect x="482" y="342" width="193" height="48" rx="12" fill="#F1F4F5"/>
<rect x="482" y="283" width="193" height="48" rx="12" fill="#F1F4F5"/>
<rect x="482" y="224" width="193" height="48" rx="12" fill="#F1F4F5"/>
<g clip-path="url(#clip11)">
<path fill-rule="evenodd" clip-rule="evenodd" d="M685.136 346.081C683.766 343.489 681.891 341.198 679.623 339.341C677.355 337.484 674.739 336.099 671.928 335.268C669.117 334.436 666.168 334.175 663.255 334.499C660.341 334.824 657.522 335.727 654.963 337.157L649.046 340.471L642.574 338.469C639.772 337.604 636.825 337.308 633.907 337.599C630.989 337.889 628.159 338.76 625.582 340.161C623.006 341.561 620.735 343.462 618.904 345.753C617.073 348.043 615.719 350.677 614.921 353.499L613.072 360.016L607.088 363.183C604.496 364.553 602.205 366.427 600.348 368.695C598.491 370.963 597.106 373.58 596.274 376.391C595.443 379.202 595.182 382.151 595.506 385.064C595.831 387.977 596.734 390.796 598.164 393.356L601.47 399.27L599.469 405.742C598.604 408.544 598.308 411.491 598.599 414.409C598.889 417.327 599.76 420.158 601.16 422.734C602.561 425.311 604.462 427.581 606.752 429.412C609.043 431.243 611.677 432.597 614.498 433.396L621.016 435.244L624.183 441.229C625.552 443.82 627.427 446.112 629.695 447.969C631.963 449.826 634.579 451.21 637.39 452.042C640.201 452.873 643.15 453.134 646.064 452.81C648.977 452.485 651.796 451.582 654.355 450.152L660.27 446.846L666.742 448.847C669.544 449.712 672.491 450.008 675.409 449.718C678.327 449.427 681.157 448.556 683.734 447.156C686.31 445.756 688.581 443.854 690.412 441.564C692.243 439.273 693.597 436.64 694.395 433.818L696.244 427.301L702.228 424.134C704.82 422.764 707.111 420.89 708.968 418.622C710.825 416.353 712.21 413.737 713.041 410.926C713.873 408.115 714.134 405.166 713.809 402.253C713.485 399.339 712.582 396.52 711.152 393.961L707.846 388.046L709.847 381.574C710.712 378.772 711.008 375.826 710.717 372.908C710.427 369.99 709.556 367.159 708.156 364.583C706.755 362.006 704.854 359.736 702.563 357.905C700.273 356.074 697.639 354.719 694.818 353.921L688.3 352.073L685.133 346.088L685.136 346.081ZM674.313 390.376C675.201 389.893 675.861 389.077 676.147 388.108C676.434 387.139 676.324 386.096 675.841 385.208C675.359 384.32 674.543 383.66 673.574 383.374C672.605 383.087 671.562 383.197 670.674 383.68L645.647 397.288L639.759 386.442C639.52 386.002 639.197 385.614 638.808 385.299C638.419 384.985 637.972 384.75 637.492 384.608C637.012 384.466 636.509 384.42 636.011 384.472C635.514 384.525 635.031 384.675 634.592 384.914C634.152 385.153 633.764 385.476 633.449 385.865C633.134 386.254 632.899 386.701 632.757 387.181C632.615 387.661 632.569 388.164 632.622 388.662C632.674 389.159 632.824 389.642 633.063 390.081L640.773 404.267C641.012 404.707 641.335 405.096 641.724 405.411C642.113 405.726 642.56 405.962 643.04 406.104C643.52 406.245 644.023 406.291 644.521 406.239C645.019 406.186 645.501 406.035 645.941 405.796L674.313 390.376V390.376Z" fill="url(#paint14_linear)"/>
</g>
<g filter="url(#filter1_d)">
<rect x="103" y="278" width="291" height="59" rx="10" fill="white"/>
</g>
<rect x="164" y="287" width="113" height="12" fill="#F1F4F5"/>
<rect x="164" y="308" width="139" height="8" fill="#F1F4F5"/>
<rect x="164" y="319" width="173" height="8" fill="#F1F4F5"/>
<circle cx="133.325" cy="307.156" r="16.5" transform="rotate(1.70166 133.325 307.156)" fill="url(#paint15_radial)"/>
<path d="M139.68 301.981C139.614 301.892 139.544 301.807 139.47 301.725C139.548 301.524 139.608 301.317 139.648 301.105C139.771 300.33 139.68 299.537 139.387 298.81C139.387 298.81 138.473 298.513 136.354 299.907C135.464 299.65 134.542 299.516 133.616 299.508C132.687 299.497 131.76 299.611 130.861 299.847C128.773 298.392 127.853 298.685 127.853 298.685C127.547 299.398 127.44 300.18 127.542 300.949C127.578 301.17 127.636 301.387 127.715 301.598C127.64 301.679 127.566 301.768 127.499 301.849C126.88 302.609 126.546 303.56 126.553 304.54C126.549 304.773 126.557 305.005 126.579 305.236C126.801 308.866 129.207 309.735 131.504 310.022C131.175 310.321 130.95 310.717 130.861 311.153C130.782 311.443 130.743 311.743 130.745 312.044L130.734 313.116C129.817 313.188 128.879 313.045 128.596 312.224C128.292 311.439 127.78 310.751 127.116 310.233C127.068 310.206 127.021 310.175 126.978 310.14C126.921 309.985 126.818 309.85 126.683 309.755C126.548 309.659 126.388 309.606 126.222 309.603L126.218 309.603C126.002 309.601 125.793 309.685 125.638 309.835C125.483 309.986 125.394 310.193 125.391 310.409C125.381 311.074 126.042 311.511 126.313 311.659C126.628 311.984 126.88 312.364 127.057 312.78C127.345 313.621 128.203 314.903 130.691 314.765L130.692 314.845L130.693 315.064C130.691 315.281 130.775 315.491 130.926 315.646C131.078 315.801 131.285 315.889 131.503 315.892L135.361 315.934C135.578 315.936 135.788 315.852 135.943 315.7C136.098 315.548 136.186 315.341 136.189 315.124C136.189 315.124 136.223 312.537 136.228 312.103C136.237 311.803 136.204 311.502 136.131 311.21L136.13 311.205L136.133 311.21C136.126 311.181 136.116 311.158 136.108 311.13C136.021 310.724 135.814 310.353 135.513 310.065L135.523 310.083L135.507 310.066C137.81 309.829 140.218 308.996 140.519 305.389C140.545 305.158 140.559 304.926 140.559 304.693C140.584 303.716 140.274 302.759 139.68 301.982L139.68 301.981Z" fill="white"/>
<g filter="url(#filter2_d)">
<rect x="103" y="356" width="291" height="59" rx="10" fill="white"/>
</g>
<rect x="164" y="369" width="112" height="12" fill="#F1F4F5"/>
<rect x="164" y="390" width="138" height="8" fill="#F1F4F5"/>
<rect x="164" y="401" width="172" height="8" fill="#F1F4F5"/>
<circle cx="134.482" cy="385.482" r="16.5" transform="rotate(-16.3728 134.482 385.482)" fill="url(#paint16_radial)"/>
<g clip-path="url(#clip12)">
<path d="M143.466 381.383C142.82 381.569 142.129 381.674 141.433 381.661C142.199 381.328 142.818 380.727 143.173 379.97C142.454 380.283 141.686 380.469 140.903 380.52C140.627 380.138 140.275 379.816 139.869 379.576C139.464 379.336 139.013 379.182 138.546 379.123C136.654 378.883 134.937 380.223 134.698 382.104C134.665 382.369 134.663 382.637 134.683 382.898C131.869 382.389 129.515 380.715 128.099 378.429C127.726 378.913 127.49 379.488 127.415 380.094C127.264 381.279 127.734 382.401 128.575 383.132C128.036 383.042 127.526 382.826 127.087 382.501L127.081 382.543C126.87 384.203 127.868 385.727 129.392 386.242C129.088 386.281 128.781 386.282 128.478 386.244C128.256 386.216 128.048 386.167 127.84 386.11C128.1 387.518 129.234 388.661 130.73 388.884C129.44 389.654 127.902 390.007 126.306 389.804C126.02 389.768 125.757 389.724 125.487 389.657C126.877 390.821 128.601 391.61 130.535 391.856C136.812 392.654 140.909 387.89 141.483 383.376C141.502 383.228 141.521 383.08 141.53 382.931C142.256 382.529 142.915 382 143.466 381.383Z" fill="white"/>
</g>
<g filter="url(#filter3_d)">
<rect x="103" y="200" width="291" height="59" rx="10" fill="white"/>
</g>
<circle cx="134.098" cy="229.098" r="16.5637" transform="rotate(33.6014 134.098 229.098)" fill="url(#paint17_radial)"/>
<g clip-path="url(#clip13)">
<path fill-rule="evenodd" clip-rule="evenodd" d="M128.858 223.59C128.906 222.98 129.195 222.414 129.661 222.016C130.127 221.618 130.731 221.422 131.342 221.47L138.248 222.015C138.858 222.063 139.425 222.352 139.822 222.817C140.22 223.283 140.416 223.888 140.368 224.498L139.279 238.31L133.796 234.403L127.769 237.402L128.858 223.59Z" fill="white"/>
</g>
<rect x="164" y="208" width="113" height="12" fill="#F1F4F5"/>
<rect x="164" y="229" width="139" height="8" fill="#F1F4F5"/>
<rect x="164" y="240" width="173" height="8" fill="#F1F4F5"/>
<g filter="url(#filter4_d)">
<path d="M222.87 276.988L220.001 233.326L250.872 264.336L233.893 265.534L222.87 276.988Z" fill="#393939"/>
<path d="M222.87 276.988L220.001 233.326L250.872 264.336L233.893 265.534L222.87 276.988Z" stroke="white" stroke-width="2"/>
</g>
</g>
<defs>
<filter id="filter0_d" x="401" y="193" width="311" height="240" filterUnits="userSpaceOnUse" color-interpolation-filters="sRGB">
<feFlood flood-opacity="0" result="BackgroundImageFix"/>
<feColorMatrix in="SourceAlpha" type="matrix" values="0 0 0 0 0 0 0 0 0 0 0 0 0 0 0 0 0 0 127 0"/>
<feOffset dy="2"/>
<feGaussianBlur stdDeviation="5"/>
<feColorMatrix type="matrix" values="0 0 0 0 0 0 0 0 0 0 0 0 0 0 0 0 0 0 0.05 0"/>
<feBlend mode="normal" in2="BackgroundImageFix" result="effect1_dropShadow"/>
<feBlend mode="normal" in="SourceGraphic" in2="effect1_dropShadow" result="shape"/>
</filter>
<filter id="filter1_d" x="93" y="270" width="311" height="79" filterUnits="userSpaceOnUse" color-interpolation-filters="sRGB">
<feFlood flood-opacity="0" result="BackgroundImageFix"/>
<feColorMatrix in="SourceAlpha" type="matrix" values="0 0 0 0 0 0 0 0 0 0 0 0 0 0 0 0 0 0 127 0"/>
<feOffset dy="2"/>
<feGaussianBlur stdDeviation="5"/>
<feColorMatrix type="matrix" values="0 0 0 0 0 0 0 0 0 0 0 0 0 0 0 0 0 0 0.05 0"/>
<feBlend mode="normal" in2="BackgroundImageFix" result="effect1_dropShadow"/>
<feBlend mode="normal" in="SourceGraphic" in2="effect1_dropShadow" result="shape"/>
</filter>
<filter id="filter2_d" x="93" y="348" width="311" height="79" filterUnits="userSpaceOnUse" color-interpolation-filters="sRGB">
<feFlood flood-opacity="0" result="BackgroundImageFix"/>
<feColorMatrix in="SourceAlpha" type="matrix" values="0 0 0 0 0 0 0 0 0 0 0 0 0 0 0 0 0 0 127 0"/>
<feOffset dy="2"/>
<feGaussianBlur stdDeviation="5"/>
<feColorMatrix type="matrix" values="0 0 0 0 0 0 0 0 0 0 0 0 0 0 0 0 0 0 0.05 0"/>
<feBlend mode="normal" in2="BackgroundImageFix" result="effect1_dropShadow"/>
<feBlend mode="normal" in="SourceGraphic" in2="effect1_dropShadow" result="shape"/>
</filter>
<filter id="filter3_d" x="93" y="192" width="311" height="79" filterUnits="userSpaceOnUse" color-interpolation-filters="sRGB">
<feFlood flood-opacity="0" result="BackgroundImageFix"/>
<feColorMatrix in="SourceAlpha" type="matrix" values="0 0 0 0 0 0 0 0 0 0 0 0 0 0 0 0 0 0 127 0"/>
<feOffset dy="2"/>
<feGaussianBlur stdDeviation="5"/>
<feColorMatrix type="matrix" values="0 0 0 0 0 0 0 0 0 0 0 0 0 0 0 0 0 0 0.05 0"/>
<feBlend mode="normal" in2="BackgroundImageFix" result="effect1_dropShadow"/>
<feBlend mode="normal" in="SourceGraphic" in2="effect1_dropShadow" result="shape"/>
</filter>
<filter id="filter4_d" x="199.25" y="223.703" width="57.903" height="63.6098" filterUnits="userSpaceOnUse" color-interpolation-filters="sRGB">
<feFlood flood-opacity="0" result="BackgroundImageFix"/>
<feColorMatrix in="SourceAlpha" type="matrix" values="0 0 0 0 0 0 0 0 0 0 0 0 0 0 0 0 0 0 127 0"/>
<feOffset dy="4"/>
<feGaussianBlur stdDeviation="2"/>
<feColorMatrix type="matrix" values="0 0 0 0 0 0 0 0 0 0 0 0 0 0 0 0 0 0 0.1 0"/>
<feBlend mode="normal" in2="BackgroundImageFix" result="effect1_dropShadow"/>
<feBlend mode="normal" in="SourceGraphic" in2="effect1_dropShadow" result="shape"/>
</filter>
<radialGradient id="paint0_radial" cx="0" cy="0" r="1" gradientUnits="userSpaceOnUse" gradientTransform="translate(281.5 316.5) rotate(90) scale(241.5)">
<stop offset="0.625" stop-color="#8B5CF6" stop-opacity="0.15"/>
<stop offset="1" stop-color="white" stop-opacity="0"/>
</radialGradient>
<radialGradient id="paint1_radial" cx="0" cy="0" r="1" gradientUnits="userSpaceOnUse" gradientTransform="translate(201 220) rotate(90) scale(201)">
<stop offset="0.625" stop-color="#81C2FF" stop-opacity="0.15"/>
<stop offset="1" stop-color="white" stop-opacity="0"/>
</radialGradient>
<radialGradient id="paint2_radial" cx="0" cy="0" r="1" gradientUnits="userSpaceOnUse" gradientTransform="translate(460.5 291.5) rotate(90) scale(241.5)">
<stop offset="0.625" stop-color="#F65C5C" stop-opacity="0.15"/>
<stop offset="1" stop-color="white" stop-opacity="0"/>
</radialGradient>
<radialGradient id="paint3_radial" cx="0" cy="0" r="1" gradientUnits="userSpaceOnUse" gradientTransform="translate(418.237 79.7066) rotate(90) scale(44.5162)">
<stop stop-color="#C485C7"/>
<stop offset="1" stop-color="#914E94"/>
</radialGradient>
<radialGradient id="paint4_radial" cx="0" cy="0" r="1" gradientUnits="userSpaceOnUse" gradientTransform="translate(249.057 97.5263) rotate(90) scale(40.3809)">
<stop stop-color="#89D3E3"/>
<stop offset="1" stop-color="#46E2A1"/>
</radialGradient>
<radialGradient id="paint5_radial" cx="0" cy="0" r="1" gradientUnits="userSpaceOnUse" gradientTransform="translate(218.808 169.808) rotate(90) scale(50.6547)">
<stop stop-color="#626262" stop-opacity="0.79"/>
<stop offset="1" stop-opacity="0.9"/>
</radialGradient>
<radialGradient id="paint6_radial" cx="0" cy="0" r="1" gradientUnits="userSpaceOnUse" gradientTransform="translate(549.846 148.846) rotate(90) scale(76.5187)">
<stop stop-color="#89D3E3"/>
<stop offset="1" stop-color="#46E2A1"/>
</radialGradient>
<radialGradient id="paint7_radial" cx="0" cy="0" r="1" gradientUnits="userSpaceOnUse" gradientTransform="translate(346.137 153.137) rotate(90) scale(70.1966)">
<stop stop-color="#ACDFFF"/>
<stop offset="1" stop-color="#35AFFA"/>
</radialGradient>
<radialGradient id="paint8_radial" cx="0" cy="0" r="1" gradientUnits="userSpaceOnUse" gradientTransform="translate(449.864 265.637) rotate(90) scale(9.95332 10)">
<stop stop-color="#C485C7"/>
<stop offset="1" stop-color="#914E94"/>
</radialGradient>
<radialGradient id="paint9_radial" cx="0" cy="0" r="1" gradientUnits="userSpaceOnUse" gradientTransform="translate(450.011 321.969) rotate(90) scale(10.3652 10)">
<stop stop-color="#626262" stop-opacity="0.79"/>
<stop offset="1" stop-opacity="0.9"/>
</radialGradient>
<radialGradient id="paint10_radial" cx="0" cy="0" r="1" gradientUnits="userSpaceOnUse" gradientTransform="translate(450.264 238.134) rotate(90) scale(10)">
<stop stop-color="#89D3E3"/>
<stop offset="1" stop-color="#46E2A1"/>
</radialGradient>
<radialGradient id="paint11_radial" cx="0" cy="0" r="1" gradientUnits="userSpaceOnUse" gradientTransform="translate(451.889 351.796) rotate(90) scale(10)">
<stop stop-color="#89D3E3"/>
<stop offset="1" stop-color="#46E2A1"/>
</radialGradient>
<radialGradient id="paint12_radial" cx="0" cy="0" r="1" gradientUnits="userSpaceOnUse" gradientTransform="translate(451.889 383.796) rotate(90) scale(10)">
<stop stop-color="#89D3E3"/>
<stop offset="1" stop-color="#46E2A1"/>
</radialGradient>
<radialGradient id="paint13_radial" cx="0" cy="0" r="1" gradientUnits="userSpaceOnUse" gradientTransform="translate(450.413 293.776) rotate(90) scale(10)">
<stop stop-color="#ACDFFF"/>
<stop offset="1" stop-color="#35AFFA"/>
</radialGradient>
<linearGradient id="paint14_linear" x1="671.928" y1="335.268" x2="637.39" y2="452.042" gradientUnits="userSpaceOnUse">
<stop offset="0.265625" stop-color="#8662D2"/>
<stop offset="1" stop-color="#9CFFD4"/>
</linearGradient>
<radialGradient id="paint15_radial" cx="0" cy="0" r="1" gradientUnits="userSpaceOnUse" gradientTransform="translate(133.325 307.156) rotate(90) scale(16.5)">
<stop stop-color="#626262" stop-opacity="0.79"/>
<stop offset="1" stop-opacity="0.9"/>
</radialGradient>
<radialGradient id="paint16_radial" cx="0" cy="0" r="1" gradientUnits="userSpaceOnUse" gradientTransform="translate(134.482 385.482) rotate(90) scale(16.5)">
<stop stop-color="#ACDFFF"/>
<stop offset="1" stop-color="#35AFFA"/>
</radialGradient>
<radialGradient id="paint17_radial" cx="0" cy="0" r="1" gradientUnits="userSpaceOnUse" gradientTransform="translate(134.098 229.098) rotate(90) scale(16.5637)">
<stop stop-color="#89D3E3"/>
<stop offset="1" stop-color="#46E2A1"/>
</radialGradient>
<clipPath id="clip0">
<rect width="758" height="533" fill="white"/>
</clipPath>
<clipPath id="clip1">
<rect width="50.7763" height="50.7763" fill="white" transform="translate(387.534 59.2548) rotate(-12.0957)"/>
</clipPath>
<clipPath id="clip2">
<rect width="45.0354" height="45.0354" fill="white" transform="translate(236.705 69.6786) rotate(22.9555)"/>
</clipPath>
<clipPath id="clip3">
<rect width="60.3159" height="60.3159" fill="white" transform="translate(192.87 134.334) rotate(9.09684)"/>
</clipPath>
<clipPath id="clip4">
<rect width="85.3389" height="85.3389" fill="white" transform="translate(498.936 121.633) rotate(-15)"/>
</clipPath>
<clipPath id="clip5">
<rect width="11.4062" height="11.353" fill="white" transform="translate(442.972 261.07) rotate(-12.0957)"/>
</clipPath>
<clipPath id="clip6">
<rect width="11.9074" height="12.3419" fill="white" transform="matrix(0.987531 0.157424 -0.158759 0.987317 444.93 314.751)"/>
</clipPath>
<clipPath id="clip7">
<rect width="11.1527" height="11.1527" fill="white" transform="translate(443.611 234.577) rotate(-15)"/>
</clipPath>
<clipPath id="clip8">
<rect width="11.1527" height="11.1527" fill="white" transform="translate(449.525 344.631) rotate(28.6171)"/>
</clipPath>
<clipPath id="clip9">
<rect width="11.1527" height="11.1527" fill="white" transform="translate(449.525 376.631) rotate(28.6171)"/>
</clipPath>
<clipPath id="clip10">
<rect width="12.5234" height="12.5234" fill="white" transform="translate(444.992 286.774) rotate(7.24816)"/>
</clipPath>
<clipPath id="clip11">
<rect width="121.779" height="121.779" fill="white" transform="translate(613.539 318) rotate(16.4762)"/>
</clipPath>
<clipPath id="clip12">
<rect width="20.6635" height="20.6635" fill="white" transform="translate(125.536 373.929) rotate(7.24815)"/>
</clipPath>
<clipPath id="clip13">
<rect width="18.473" height="18.473" fill="white" transform="translate(125.678 219.865) rotate(4.51017)"/>
</clipPath>
</defs>
</svg>
