<svg width="305" height="250" viewBox="0 0 305 250" fill="none" xmlns="http://www.w3.org/2000/svg">
<g id="publish" clip-path="url(#clip0)">
<g id="Rectangle 1" filter="url(#filter0_d)">
<rect x="8" y="15" width="291" height="220" rx="21" fill="white"/>
</g>
<g id="slack">
<ellipse id="Ellipse 1" cx="46.8637" cy="79.6369" rx="10" ry="9.95332" transform="rotate(-12.0957 46.8637 79.6369)" fill="url(#paint0_radial)"/>
<g id="slack_2" clip-path="url(#clip1)">
<g id="Group">
<path id="Vector" fill-rule="evenodd" clip-rule="evenodd" d="M43.8174 81.5626C43.8502 81.7154 43.8525 81.8731 43.8241 82.0269C43.7956 82.1806 43.737 82.3273 43.6516 82.4586C43.5662 82.5899 43.4557 82.7031 43.3263 82.7919C43.197 82.8807 43.0514 82.9432 42.8978 82.9759C42.7444 83.0088 42.5861 83.0114 42.4318 82.9833C42.2775 82.9553 42.1304 82.8972 41.9988 82.8125C41.8672 82.7277 41.7537 82.6179 41.6648 82.4894C41.576 82.3608 41.5134 82.2161 41.4808 82.0633C41.448 81.9106 41.4457 81.7529 41.4741 81.5992C41.5025 81.4455 41.5611 81.2988 41.6465 81.1676C41.7318 81.0363 41.8423 80.923 41.9716 80.8343C42.1009 80.7455 42.2464 80.6829 42.3999 80.6501L43.5687 80.3997L43.8178 81.5625L43.8174 81.5626ZM44.4015 81.4374C44.3687 81.2847 44.3664 81.127 44.3948 80.9733C44.4232 80.8196 44.4818 80.6729 44.5672 80.5416C44.6525 80.4104 44.763 80.2971 44.8923 80.2083C45.0216 80.1196 45.1671 80.057 45.3206 80.0242C45.474 79.9912 45.6324 79.9887 45.7867 80.0167C45.9411 80.0447 46.0883 80.1027 46.2199 80.1875C46.3516 80.2722 46.4651 80.382 46.554 80.5106C46.6429 80.6391 46.7055 80.7839 46.7381 80.9367L47.3612 83.8442C47.394 83.9969 47.3963 84.1547 47.3679 84.3084C47.3395 84.4621 47.2809 84.6087 47.1955 84.74C47.1102 84.8713 46.9997 84.9845 46.8704 85.0733C46.7411 85.1621 46.5956 85.2246 46.4421 85.2574C46.2887 85.2904 46.1303 85.293 45.9759 85.265C45.8216 85.237 45.6744 85.1789 45.5428 85.0942C45.4111 85.0094 45.2976 84.8996 45.2087 84.7711C45.1198 84.6425 45.0572 84.4977 45.0246 84.345L44.4015 81.4374Z" fill="white"/>
<path id="Vector_2" fill-rule="evenodd" clip-rule="evenodd" d="M44.5692 76.5177C44.4157 76.5507 44.2573 76.5532 44.1029 76.5252C43.9486 76.4972 43.8013 76.4391 43.6697 76.3543C43.538 76.2695 43.4245 76.1597 43.3356 76.031C43.2467 75.9024 43.1842 75.7576 43.1516 75.6047C43.1187 75.452 43.1165 75.2943 43.1449 75.1406C43.1733 74.9869 43.2319 74.8402 43.3172 74.709C43.4026 74.5777 43.5131 74.4644 43.6424 74.3757C43.7717 74.2869 43.9172 74.2243 44.0707 74.1916C44.2241 74.1585 44.3825 74.156 44.5368 74.184C44.6911 74.212 44.8383 74.27 44.97 74.3548C45.1016 74.4395 45.2152 74.5493 45.3041 74.6779C45.393 74.8064 45.4555 74.9512 45.4882 75.104L45.7376 76.2678L44.5697 76.518L44.5692 76.5177ZM44.6957 77.1079C44.8491 77.0749 45.0075 77.0723 45.1618 77.1003C45.3161 77.1283 45.4633 77.1863 45.595 77.2711C45.7266 77.3558 45.8401 77.4656 45.9291 77.5942C46.018 77.7228 46.0805 77.8676 46.1131 78.0203C46.146 78.173 46.1483 78.3308 46.1198 78.4845C46.0914 78.6382 46.0329 78.7849 45.9475 78.9161C45.8621 79.0474 45.7516 79.1606 45.6224 79.2494C45.4931 79.3382 45.3475 79.4008 45.1941 79.4335L42.2641 80.0614C42.1107 80.0944 41.9523 80.097 41.798 80.069C41.6438 80.041 41.4966 79.983 41.365 79.8983C41.2333 79.8136 41.1198 79.7039 41.0309 79.5754C40.9419 79.4469 40.8793 79.3021 40.8467 79.1494C40.8138 78.9967 40.8115 78.839 40.84 78.6853C40.8684 78.5316 40.927 78.3849 41.0123 78.2536C41.0977 78.1224 41.2082 78.0091 41.3375 77.9203C41.4667 77.8316 41.6123 77.769 41.7658 77.7362L44.6962 77.1082L44.6957 77.1079Z" fill="white"/>
<path id="Vector_3" fill-rule="evenodd" clip-rule="evenodd" d="M49.6272 77.2672C49.5944 77.1145 49.5921 76.9567 49.6206 76.803C49.649 76.6492 49.7076 76.5025 49.793 76.3712C49.8784 76.24 49.989 76.1267 50.1183 76.0379C50.2477 75.9492 50.3933 75.8866 50.5468 75.8539C50.7002 75.8209 50.8586 75.8183 51.0129 75.8463C51.1672 75.8744 51.3144 75.9324 51.4461 76.0171C51.5777 76.1019 51.6913 76.2117 51.7802 76.3403C51.8691 76.4688 51.9317 76.6136 51.9643 76.7664C51.9971 76.9191 51.9994 77.0768 51.971 77.2305C51.9426 77.3842 51.884 77.5309 51.7986 77.6622C51.7133 77.7934 51.6028 77.9067 51.4735 77.9955C51.3442 78.0842 51.1987 78.1468 51.0452 78.1796L49.8764 78.43L49.6273 77.2677L49.6272 77.2672ZM49.0431 77.3924C49.076 77.5451 49.0782 77.7028 49.0498 77.8565C49.0214 78.0102 48.9628 78.1569 48.8775 78.2882C48.7921 78.4194 48.6816 78.5327 48.5523 78.6215C48.423 78.7103 48.2775 78.7728 48.124 78.8056C47.9706 78.8387 47.8121 78.8413 47.6578 78.8133C47.5034 78.7854 47.3562 78.7273 47.2245 78.6426C47.0928 78.5579 46.9792 78.448 46.8902 78.3195C46.8013 78.1909 46.7387 78.046 46.7061 77.8932L46.0811 74.9769C46.0482 74.8242 46.046 74.6664 46.0744 74.5127C46.1029 74.3589 46.1615 74.2122 46.2469 74.0809C46.3323 73.9497 46.4428 73.8364 46.5722 73.7476C46.7015 73.6589 46.8471 73.5963 47.0007 73.5636C47.1541 73.5306 47.3125 73.528 47.4668 73.556C47.6211 73.5841 47.7683 73.6421 47.9 73.7268C48.0316 73.8116 48.1451 73.9214 48.2341 74.0499C48.323 74.1785 48.3855 74.3233 48.4181 74.4761L49.0432 77.3929L49.0431 77.3924Z" fill="white"/>
<path id="Vector_4" fill-rule="evenodd" clip-rule="evenodd" d="M48.8736 82.3033C49.027 82.2703 49.1854 82.2677 49.3398 82.2957C49.4941 82.3237 49.6413 82.3818 49.7729 82.4665C49.9046 82.5513 50.0181 82.6611 50.107 82.7896C50.1959 82.9182 50.2585 83.063 50.2911 83.2158C50.324 83.3685 50.3263 83.5263 50.298 83.68C50.2696 83.8338 50.211 83.9805 50.1257 84.1118C50.0403 84.2431 49.9298 84.3564 49.8005 84.4452C49.6712 84.5341 49.5256 84.5966 49.3721 84.6294C49.2186 84.6624 49.0602 84.665 48.9058 84.637C48.7515 84.6089 48.6043 84.5509 48.4726 84.4661C48.3409 84.3813 48.2274 84.2714 48.1385 84.1428C48.0496 84.0142 47.9871 83.8693 47.9545 83.7165L47.7053 82.5537L48.8736 82.3033V82.3033ZM48.749 81.7219C48.5956 81.7549 48.4372 81.7575 48.2829 81.7295C48.1286 81.7015 47.9814 81.6434 47.8497 81.5587C47.7181 81.4739 47.6045 81.3641 47.5156 81.2356C47.4267 81.107 47.3641 80.9622 47.3315 80.8094C47.2987 80.6567 47.2964 80.499 47.3248 80.3453C47.3532 80.1916 47.4118 80.0449 47.4972 79.9136C47.5825 79.7824 47.693 79.6691 47.8223 79.5803C47.9516 79.4916 48.0971 79.429 48.2506 79.3962L51.1806 78.7683C51.334 78.7353 51.4924 78.7328 51.6467 78.7608C51.8011 78.7888 51.9483 78.8468 52.0799 78.9316C52.2116 79.0163 52.3251 79.1261 52.414 79.2547C52.5029 79.3832 52.5655 79.528 52.5981 79.6808C52.6309 79.8335 52.6332 79.9912 52.6048 80.1449C52.5764 80.2986 52.5178 80.4453 52.4324 80.5766C52.3471 80.7078 52.2366 80.8211 52.1073 80.9099C51.978 80.9987 51.8325 81.0612 51.679 81.094L48.749 81.7219V81.7219Z" fill="white"/>
</g>
</g>
</g>
<g id="github">
<ellipse id="Ellipse 1_2" cx="47.0114" cy="135.969" rx="10" ry="10.3652" transform="rotate(10.1765 47.0114 135.969)" fill="url(#paint1_radial)"/>
<g id="uim:github-alt" clip-path="url(#clip2)">
<path id="Vector_5" d="M51.3038 133.318C51.2728 133.257 51.2387 133.198 51.2017 133.14C51.2672 133.022 51.3224 132.899 51.3667 132.771C51.5123 132.301 51.532 131.8 51.4238 131.322C51.4238 131.322 50.9036 131.057 49.5032 131.734C48.9932 131.496 48.4534 131.331 47.8986 131.244C47.3425 131.155 46.7764 131.143 46.2156 131.21C45.0993 130.121 44.5203 130.221 44.5203 130.221C44.2706 130.637 44.1332 131.114 44.1227 131.6C44.1239 131.741 44.1384 131.881 44.166 132.019C44.1137 132.062 44.0606 132.111 44.0133 132.156C43.5712 132.573 43.2819 133.134 43.1951 133.744C43.1708 133.888 43.1541 134.033 43.1453 134.179C42.9404 136.453 44.3017 137.206 45.6523 137.588C45.4273 137.745 45.2554 137.971 45.1616 138.234C45.087 138.407 45.0356 138.59 45.0089 138.777L44.902 139.442C44.3455 139.405 43.7964 139.233 43.7034 138.698C43.5942 138.184 43.3517 137.711 43.0019 137.33C42.9752 137.309 42.9504 137.286 42.9277 137.26C42.9079 137.158 42.8588 137.066 42.7869 136.995C42.715 136.923 42.6236 136.876 42.5247 136.86L42.5223 136.859C42.3927 136.839 42.2599 136.872 42.1529 136.952C42.0459 137.032 41.9733 137.152 41.9511 137.287C41.8833 137.699 42.2388 138.029 42.3874 138.145C42.546 138.374 42.6617 138.633 42.7287 138.907C42.8235 139.455 43.2184 140.328 44.7228 140.462L44.7158 140.512L44.6959 140.649C44.6742 140.783 44.7051 140.921 44.7817 141.03C44.8583 141.14 44.9743 141.214 45.1042 141.234L47.4139 141.603C47.5438 141.623 47.677 141.59 47.7842 141.509C47.8914 141.429 47.9638 141.308 47.9855 141.173C47.9855 141.173 48.2474 139.569 48.2906 139.3C48.3239 139.114 48.3324 138.924 48.3159 138.737L48.3154 138.733L48.3169 138.737C48.3154 138.718 48.3113 138.703 48.3092 138.685C48.295 138.425 48.2055 138.176 48.0522 137.971L48.0563 137.982L48.0481 137.971C49.4511 138.028 50.9723 137.723 51.4892 135.509C51.5264 135.368 51.5561 135.225 51.5782 135.081C51.6844 134.476 51.5875 133.854 51.3037 133.319L51.3038 133.318Z" fill="white"/>
</g>
</g>
<g id="bookmark">
<circle id="Ellipse 1_3" cx="47.2644" cy="52.1338" r="10" transform="rotate(14.0912 47.2644 52.1338)" fill="url(#paint2_radial)"/>
<g id="bi:bookmark-fill" clip-path="url(#clip3)">
<g id="Group_2">
<path id="Vector_6" fill-rule="evenodd" clip-rule="evenodd" d="M43.1722 50.0561C43.0765 49.6989 43.1266 49.3184 43.3114 48.9982C43.4963 48.678 43.8008 48.4444 44.1579 48.3487L48.1977 47.2662C48.5548 47.1705 48.9353 47.2206 49.2555 47.4055C49.5757 47.5903 49.8094 47.8948 49.9051 48.252L52.07 56.3315L48.1623 55.2136L45.337 58.1355L43.1722 50.0561Z" fill="white"/>
</g>
</g>
</g>
<g id="bookmark_2">
<circle id="Ellipse 1_4" cx="48.8889" cy="165.796" r="10" transform="rotate(57.7083 48.8889 165.796)" fill="url(#paint3_radial)"/>
<g id="bi:bookmark-fill_2" clip-path="url(#clip4)">
<g id="Group_3">
<path id="Vector_7" fill-rule="evenodd" clip-rule="evenodd" d="M47.3596 161.469C47.5367 161.144 47.8354 160.903 48.1902 160.799C48.5449 160.694 48.9265 160.735 49.2511 160.912L52.9224 162.916C53.247 163.093 53.4879 163.391 53.5922 163.746C53.6965 164.101 53.6556 164.482 53.4785 164.807L49.4723 172.15L47.4144 168.645L43.3534 168.811L47.3596 161.469Z" fill="white"/>
</g>
</g>
</g>
<g id="bookmark_3">
<circle id="Ellipse 1_5" cx="48.8889" cy="197.796" r="10" transform="rotate(57.7083 48.8889 197.796)" fill="url(#paint4_radial)"/>
<g id="bi:bookmark-fill_3" clip-path="url(#clip5)">
<g id="Group_4">
<path id="Vector_8" fill-rule="evenodd" clip-rule="evenodd" d="M47.3596 193.469C47.5367 193.144 47.8354 192.903 48.1902 192.799C48.5449 192.694 48.9265 192.735 49.2511 192.912L52.9224 194.916C53.247 195.093 53.4879 195.391 53.5922 195.746C53.6965 196.101 53.6556 196.482 53.4785 196.807L49.4723 204.15L47.4144 200.645L43.3534 200.811L47.3596 193.469Z" fill="white"/>
</g>
</g>
</g>
<g id="twitter">
<circle id="Ellipse 1_6" cx="47.4133" cy="107.776" r="10" transform="rotate(-16.3728 47.4133 107.776)" fill="url(#paint5_radial)"/>
<g id="ant-design:twitter-outlined" clip-path="url(#clip6)">
<path id="Vector_9" d="M52.8579 105.291C52.4663 105.404 52.0476 105.468 51.6258 105.46C52.0905 105.258 52.4656 104.894 52.6807 104.435C52.2446 104.625 51.779 104.737 51.3045 104.768C51.1372 104.537 50.9241 104.342 50.6783 104.196C50.4325 104.051 50.1594 103.957 49.876 103.922C48.7295 103.776 47.6893 104.588 47.5442 105.729C47.5238 105.889 47.5229 106.051 47.5348 106.209C45.8296 105.901 44.4028 104.886 43.5446 103.501C43.3188 103.794 43.1758 104.143 43.1303 104.51C43.0389 105.228 43.3236 105.908 43.8331 106.351C43.5065 106.297 43.1975 106.166 42.9312 105.969L42.9279 105.995C42.8 107 43.4049 107.924 44.3281 108.236C44.1443 108.26 43.9583 108.26 43.7744 108.237C43.6397 108.22 43.514 108.191 43.3878 108.156C43.5455 109.01 44.2329 109.702 45.1391 109.837C44.3573 110.304 43.4252 110.518 42.4582 110.395C42.2847 110.373 42.1254 110.347 41.9616 110.306C42.804 111.011 43.849 111.489 45.021 111.638C48.8256 112.122 51.3084 109.235 51.6563 106.499C51.6677 106.41 51.6791 106.32 51.6845 106.229C52.1248 105.986 52.5243 105.665 52.8579 105.291Z" fill="white"/>
</g>
</g>
<rect id="Rectangle 5" x="79" y="156" width="193" height="48" rx="12" fill="#F1F4F5"/>
<rect id="Rectangle 6" x="79" y="97" width="193" height="48" rx="12" fill="#F1F4F5"/>
<rect id="Rectangle 7" x="79" y="38" width="193" height="48" rx="12" fill="#F1F4F5"/>
<g id="bi:patch-check-fll" clip-path="url(#clip7)">
<g id="Group_5">
<path id="Vector_10" fill-rule="evenodd" clip-rule="evenodd" d="M258.439 145.753C257.427 143.838 256.041 142.144 254.365 140.772C252.689 139.399 250.755 138.376 248.678 137.761C246.6 137.147 244.421 136.954 242.268 137.194C240.115 137.434 238.031 138.101 236.14 139.158L231.767 141.607L226.984 140.128C224.913 139.488 222.736 139.27 220.579 139.484C218.423 139.699 216.331 140.343 214.427 141.378C212.522 142.413 210.845 143.818 209.491 145.511C208.138 147.203 207.137 149.15 206.547 151.235L205.181 156.052L200.758 158.392C198.843 159.405 197.15 160.79 195.777 162.466C194.405 164.142 193.381 166.076 192.767 168.153C192.152 170.231 191.96 172.41 192.199 174.563C192.439 176.716 193.107 178.8 194.163 180.691L196.607 185.062L195.128 189.845C194.489 191.916 194.27 194.094 194.484 196.25C194.699 198.407 195.343 200.499 196.378 202.403C197.413 204.307 198.818 205.985 200.511 207.338C202.203 208.691 204.15 209.692 206.235 210.282L211.052 211.648L213.392 216.071C214.405 217.986 215.79 219.68 217.466 221.052C219.142 222.425 221.076 223.448 223.153 224.063C225.231 224.677 227.41 224.87 229.563 224.63C231.716 224.39 233.8 223.723 235.691 222.666L240.062 220.223L244.845 221.702C246.916 222.341 249.094 222.56 251.25 222.345C253.407 222.13 255.499 221.487 257.403 220.452C259.307 219.417 260.985 218.012 262.338 216.319C263.691 214.626 264.692 212.68 265.282 210.594L266.648 205.778L271.071 203.437C272.986 202.425 274.68 201.04 276.052 199.364C277.425 197.687 278.448 195.754 279.063 193.676C279.677 191.599 279.87 189.419 279.63 187.266C279.39 185.113 278.723 183.03 277.666 181.138L275.223 176.767L276.702 171.984C277.341 169.913 277.56 167.736 277.345 165.579C277.13 163.422 276.487 161.331 275.452 159.427C274.417 157.522 273.012 155.844 271.319 154.491C269.626 153.138 267.68 152.137 265.595 151.547L260.778 150.181L258.437 145.758L258.439 145.753ZM250.441 178.489C251.097 178.132 251.584 177.529 251.796 176.813C252.008 176.097 251.927 175.326 251.57 174.67C251.213 174.013 250.611 173.526 249.895 173.314C249.178 173.102 248.407 173.183 247.751 173.54L229.256 183.597L224.904 175.582C224.727 175.257 224.489 174.97 224.201 174.737C223.914 174.505 223.583 174.331 223.228 174.226C222.874 174.121 222.502 174.087 222.134 174.126C221.766 174.165 221.41 174.276 221.085 174.452C220.76 174.629 220.473 174.868 220.24 175.155C220.008 175.443 219.834 175.773 219.729 176.128C219.624 176.482 219.59 176.854 219.629 177.222C219.668 177.59 219.779 177.946 219.955 178.271L225.654 188.755C225.83 189.08 226.068 189.368 226.356 189.601C226.643 189.833 226.974 190.007 227.329 190.112C227.683 190.217 228.055 190.251 228.423 190.212C228.791 190.173 229.148 190.062 229.472 189.885L250.441 178.489V178.489Z" fill="url(#paint6_linear)"/>
</g>
</g>
</g>
<defs>
<filter id="filter0_d" x="-2" y="7" width="311" height="240" filterUnits="userSpaceOnUse" color-interpolation-filters="sRGB">
<feFlood flood-opacity="0" result="BackgroundImageFix"/>
<feColorMatrix in="SourceAlpha" type="matrix" values="0 0 0 0 0 0 0 0 0 0 0 0 0 0 0 0 0 0 127 0"/>
<feOffset dy="2"/>
<feGaussianBlur stdDeviation="5"/>
<feColorMatrix type="matrix" values="0 0 0 0 0 0 0 0 0 0 0 0 0 0 0 0 0 0 0.05 0"/>
<feBlend mode="normal" in2="BackgroundImageFix" result="effect1_dropShadow"/>
<feBlend mode="normal" in="SourceGraphic" in2="effect1_dropShadow" result="shape"/>
</filter>
<radialGradient id="paint0_radial" cx="0" cy="0" r="1" gradientUnits="userSpaceOnUse" gradientTransform="translate(46.8637 79.6369) rotate(90) scale(9.95332 10)">
<stop stop-color="#C485C7"/>
<stop offset="1" stop-color="#914E94"/>
</radialGradient>
<radialGradient id="paint1_radial" cx="0" cy="0" r="1" gradientUnits="userSpaceOnUse" gradientTransform="translate(47.0114 135.969) rotate(90) scale(10.3652 10)">
<stop stop-color="#626262" stop-opacity="0.79"/>
<stop offset="1" stop-opacity="0.9"/>
</radialGradient>
<radialGradient id="paint2_radial" cx="0" cy="0" r="1" gradientUnits="userSpaceOnUse" gradientTransform="translate(47.2644 52.1338) rotate(90) scale(10)">
<stop stop-color="#89D3E3"/>
<stop offset="1" stop-color="#46E2A1"/>
</radialGradient>
<radialGradient id="paint3_radial" cx="0" cy="0" r="1" gradientUnits="userSpaceOnUse" gradientTransform="translate(48.8889 165.796) rotate(90) scale(10)">
<stop stop-color="#89D3E3"/>
<stop offset="1" stop-color="#46E2A1"/>
</radialGradient>
<radialGradient id="paint4_radial" cx="0" cy="0" r="1" gradientUnits="userSpaceOnUse" gradientTransform="translate(48.8889 197.796) rotate(90) scale(10)">
<stop stop-color="#89D3E3"/>
<stop offset="1" stop-color="#46E2A1"/>
</radialGradient>
<radialGradient id="paint5_radial" cx="0" cy="0" r="1" gradientUnits="userSpaceOnUse" gradientTransform="translate(47.4133 107.776) rotate(90) scale(10)">
<stop stop-color="#ACDFFF"/>
<stop offset="1" stop-color="#35AFFA"/>
</radialGradient>
<linearGradient id="paint6_linear" x1="248.678" y1="137.761" x2="223.153" y2="224.063" gradientUnits="userSpaceOnUse">
<stop stop-color="#ACFFC3"/>
<stop offset="0.0001" stop-color="#E0A6FC" stop-opacity="0.989583"/>
<stop offset="1" stop-color="#69FF93" stop-opacity="0"/>
</linearGradient>
<clipPath id="clip0">
<rect width="305" height="250" fill="white"/>
</clipPath>
<clipPath id="clip1">
<rect width="11.4062" height="11.353" fill="white" transform="translate(39.9724 75.0698) rotate(-12.0957)"/>
</clipPath>
<clipPath id="clip2">
<rect width="11.9074" height="12.3419" fill="white" transform="matrix(0.987531 0.157424 -0.158759 0.987317 41.9296 128.751)"/>
</clipPath>
<clipPath id="clip3">
<rect width="11.1527" height="11.1527" fill="white" transform="translate(40.6111 48.5774) rotate(-15)"/>
</clipPath>
<clipPath id="clip4">
<rect width="11.1527" height="11.1527" fill="white" transform="translate(46.5255 158.631) rotate(28.6171)"/>
</clipPath>
<clipPath id="clip5">
<rect width="11.1527" height="11.1527" fill="white" transform="translate(46.5255 190.631) rotate(28.6171)"/>
</clipPath>
<clipPath id="clip6">
<rect width="12.5234" height="12.5234" fill="white" transform="translate(41.9917 100.774) rotate(7.24816)"/>
</clipPath>
<clipPath id="clip7">
<rect width="90" height="90" fill="white" transform="translate(205.525 125) rotate(16.4762)"/>
</clipPath>
</defs>
</svg>
