<?xml version="1.0" standalone="no"?>
<!DOCTYPE svg PUBLIC "-//W3C//DTD SVG 20010904//EN"
 "http://www.w3.org/TR/2001/REC-SVG-20010904/DTD/svg10.dtd">
<svg version="1.0" xmlns="http://www.w3.org/2000/svg"
 width="512.000000pt" height="512.000000pt" viewBox="0 0 512.000000 512.000000"
 preserveAspectRatio="xMidYMid meet">

<g transform="translate(0.000000,512.000000) scale(0.100000,-0.100000)"
fill="#000000" stroke="none">
<path d="M1020 5109 c-106 -21 -215 -100 -273 -197 -65 -109 -62 -44 -62
-1297 l0 -1140 82 -3 83 -3 2 1143 3 1143 25 49 c14 27 43 64 64 83 79 67 -14
63 1616 63 1630 0 1537 4 1616 -63 61 -53 85 -111 91 -223 l6 -96 -409 -409
-409 -409 -307 0 -308 0 -36 73 c-145 287 -390 466 -707 517 -101 17 -267 8
-372 -20 -338 -89 -608 -372 -680 -715 -21 -101 -22 -284 -1 -383 79 -371 373
-659 745 -729 l91 -17 0 -189 c0 -186 0 -188 25 -212 l24 -25 970 0 970 0 28
24 28 24 3 599 3 599 169 169 170 170 0 -877 0 -878 -1001 -2 -1001 -3 -24
-28 -24 -28 0 -369 0 -369 24 -28 24 -28 1003 -3 1002 -2 -6 -69 c-10 -118
-51 -188 -138 -236 l-54 -30 -712 -3 -713 -3 0 -84 0 -85 683 0 c390 0 707 4
741 10 139 23 260 113 319 237 24 52 33 91 41 165 l10 98 293 0 c312 0 349 5
372 48 7 14 11 143 11 386 l0 365 -24 28 -24 28 -316 3 -316 3 0 962 0 961
309 311 c358 359 366 370 366 510 0 93 -21 148 -80 213 -97 108 -249 139 -381
78 -27 -13 -87 -59 -135 -104 l-85 -81 -12 57 c-27 128 -134 253 -258 303
l-59 24 -1520 1 c-845 1 -1540 -2 -1565 -7z m3850 -350 c46 -26 80 -84 80
-137 0 -43 -52 -134 -80 -140 -8 -1 -62 45 -120 102 l-104 105 24 27 c61 66
132 81 200 43z m-747 -1031 l-623 -623 -110 110 -110 110 622 622 623 623 110
-110 110 -110 -622 -622z m-1948 422 c135 -43 241 -106 332 -199 58 -58 133
-164 133 -188 0 -11 -64 -13 -355 -13 l-356 0 -24 -25 -25 -24 0 -526 0 -525
-42 6 c-73 11 -190 53 -260 94 -321 190 -460 565 -340 915 41 119 84 186 182
286 112 114 229 179 385 215 90 20 281 12 370 -16z m542 -597 c15 -53 8 -264
-11 -333 -79 -290 -320 -510 -618 -564 l-38 -7 0 466 0 465 330 0 330 0 7 -27z
m466 -76 c-56 -56 -104 -114 -107 -127 -22 -90 -86 -429 -86 -452 0 -40 40
-78 83 -78 30 0 403 71 452 86 11 4 66 52 123 107 l102 101 0 -447 0 -447
-850 0 -850 0 0 129 0 128 90 17 c358 70 634 329 732 686 19 72 23 109 23 243
l0 157 194 0 195 0 -101 -103z m129 -438 c-8 -7 -124 -31 -128 -26 -3 2 6 45
22 116 5 23 7 22 60 -30 29 -29 51 -56 46 -60z m-752 -1414 l0 -85 85 0 85 0
0 85 0 85 85 0 85 0 0 -85 0 -85 85 0 85 0 0 85 0 85 85 0 85 0 0 -85 0 -85
85 0 84 0 3 83 3 82 83 3 82 3 0 -86 0 -85 85 0 84 0 3 83 3 82 85 0 85 0 3
-82 3 -83 84 0 85 0 0 85 0 86 83 -3 82 -3 3 -82 3 -83 84 0 85 0 0 85 0 85
85 0 85 0 0 -85 0 -85 85 0 85 0 0 85 0 85 85 0 85 0 -2 -257 -3 -258 -1277
-3 -1278 -2 0 260 0 260 85 0 85 0 0 -85z"/>
<path d="M1020 4695 l0 -85 85 0 85 0 0 85 0 85 -85 0 -85 0 0 -85z"/>
<path d="M1370 4695 l0 -85 85 0 85 0 0 85 0 85 -85 0 -85 0 0 -85z"/>
<path d="M1710 4695 l0 -85 85 0 85 0 0 85 0 85 -85 0 -85 0 0 -85z"/>
<path d="M52 2804 c-17 -7 -35 -21 -41 -33 -8 -14 -11 -422 -11 -1366 l0
-1347 29 -29 29 -29 1352 0 1351 0 24 25 c24 23 29 39 25 80 -2 27 -2676 2702
-2706 2708 -12 2 -36 -2 -52 -9z m1298 -1459 l1175 -1175 -1178 0 -1177 0 0
1175 c0 646 1 1175 3 1175 1 0 531 -529 1177 -1175z"/>
<path d="M561 1524 c-18 -7 -36 -25 -41 -40 -7 -17 -10 -187 -8 -475 l3 -448
23 -23 23 -23 437 -3 c240 -2 452 0 470 3 39 7 65 43 64 87 -1 28 -55 86 -448
479 -260 260 -457 449 -470 452 -12 2 -36 -2 -53 -9z m404 -564 l280 -280
-283 0 -282 0 0 280 c0 154 1 280 3 280 1 0 128 -126 282 -280z"/>
</g>
</svg>
