<?xml version="1.0" standalone="no"?>
<!DOCTYPE svg PUBLIC "-//W3C//DTD SVG 20010904//EN"
 "http://www.w3.org/TR/2001/REC-SVG-20010904/DTD/svg10.dtd">
<svg version="1.0" xmlns="http://www.w3.org/2000/svg"
 width="1482.000000pt" height="1477.000000pt" viewBox="0 0 1482.000000 1477.000000"
 preserveAspectRatio="xMidYMid meet">

<g transform="translate(0.000000,1477.000000) scale(0.100000,-0.100000)"
fill="#000000" stroke="none">
<path d="M4185 14689 c-468 -22 -715 -41 -1005 -80 -71 -9 -102 -15 -237 -40
-47 -8 -181 -40 -356 -84 -115 -28 -401 -144 -527 -212 -149 -81 -165 -91
-300 -178 -360 -232 -731 -589 -999 -963 -45 -64 -86 -124 -89 -132 -3 -8 -10
-19 -15 -25 -29 -34 -109 -176 -176 -310 -80 -162 -103 -215 -136 -315 -15
-47 -31 -94 -36 -105 -10 -22 -56 -194 -70 -262 -25 -117 -30 -142 -39 -198
-49 -277 -80 -587 -100 -985 -4 -91 -13 -559 -20 -1040 -14 -1032 -7 -5281 9
-5615 17 -340 31 -574 42 -670 25 -233 31 -285 40 -350 6 -38 15 -90 19 -115
5 -25 14 -76 21 -115 20 -115 77 -330 125 -473 63 -186 122 -314 216 -475 32
-55 58 -101 58 -103 0 -8 132 -205 188 -282 211 -288 484 -564 762 -770 82
-62 335 -232 344 -232 3 0 42 -22 88 -48 265 -153 598 -271 933 -332 233 -43
288 -50 580 -80 527 -53 1284 -62 4395 -57 1676 3 2645 8 2775 16 480 26 682
41 835 62 191 26 337 49 375 59 17 4 57 13 90 20 180 38 454 122 570 175 159
73 302 147 355 185 16 11 31 20 34 20 19 0 255 163 396 274 183 144 440 393
535 521 17 22 38 49 48 60 11 11 45 56 78 100 32 44 62 85 66 90 34 44 183
282 183 292 0 2 13 23 28 46 62 92 176 353 227 517 49 159 80 282 105 420 5
25 13 70 19 100 28 154 47 317 71 615 24 296 29 477 40 1330 14 1076 7 5241
-9 5625 -31 723 -67 1046 -161 1450 -77 330 -175 570 -363 885 -210 353 -498
682 -847 972 -8 6 -42 32 -75 57 -33 25 -65 50 -71 55 -6 5 -30 21 -55 36 -24
16 -60 41 -79 57 -19 15 -40 28 -46 28 -7 0 -14 4 -16 8 -4 11 -188 119 -288
169 -171 87 -390 169 -590 224 -25 6 -58 15 -75 20 -32 8 -127 27 -295 58
-233 43 -663 80 -1175 101 -300 12 -6129 11 -6400 -1z m6430 -2519 c103 -14
156 -30 193 -57 61 -46 36 -113 -91 -245 -36 -37 -80 -87 -98 -110 -19 -24
-36 -45 -39 -48 -3 -3 -18 -23 -35 -45 -16 -22 -32 -42 -36 -45 -21 -15 -195
-266 -271 -390 -164 -269 -343 -627 -453 -905 -15 -38 -33 -83 -40 -100 -28
-65 -102 -260 -140 -370 -89 -252 -124 -356 -175 -505 -32 -96 -78 -227 -100
-290 -23 -63 -45 -126 -50 -140 -20 -60 -53 -148 -67 -180 -14 -33 -22 -52
-42 -102 -80 -203 -233 -528 -253 -536 -4 -2 -8 -8 -8 -12 0 -9 -79 -140 -90
-150 -3 -3 -23 -30 -44 -60 -232 -328 -566 -555 -1051 -714 -340 -112 -686
-176 -1145 -212 -230 -18 -263 -28 -268 -85 -3 -31 2 -40 25 -56 57 -39 222
-69 510 -93 214 -18 337 -14 653 21 227 24 461 74 720 151 147 44 205 51 221
28 13 -20 2 -103 -20 -154 -10 -22 -24 -57 -32 -76 -30 -83 -166 -337 -240
-451 -237 -362 -580 -666 -954 -844 -172 -82 -359 -149 -515 -185 -213 -49
-346 -70 -700 -110 -283 -32 -466 -65 -585 -105 -284 -95 -457 -266 -728 -717
-105 -174 -367 -627 -367 -634 0 -2 -15 -27 -34 -56 -18 -30 -64 -103 -101
-163 -205 -336 -423 -588 -578 -667 -136 -69 -258 -60 -300 22 -38 74 -6 181
158 515 77 156 175 365 175 371 0 2 26 58 59 126 70 147 136 288 207 446 13
28 35 76 48 105 13 28 65 144 116 256 50 112 95 211 100 220 5 9 19 41 33 71
13 30 37 82 52 115 62 135 74 162 95 210 12 28 33 74 46 103 13 29 24 55 24
57 0 3 30 69 66 148 36 78 72 156 79 172 37 86 60 136 85 190 15 33 38 83 50
110 34 77 70 156 90 195 9 19 27 62 40 95 13 33 27 65 31 70 4 6 26 53 49 105
60 137 70 158 100 225 30 65 63 137 104 228 59 130 81 178 142 305 35 73 64
135 64 137 0 17 360 763 538 1115 140 276 154 302 285 540 44 80 94 172 112
205 40 76 59 109 65 115 5 5 10 13 52 89 11 20 29 48 39 63 11 14 19 29 19 33
0 3 14 26 30 50 17 24 30 46 30 49 0 29 458 704 555 818 45 52 95 115 140 173
179 233 574 619 821 802 16 12 50 37 76 57 370 279 935 528 1408 621 228 45
374 64 635 84 157 12 428 12 510 1z m-999 -7706 c263 -54 488 -236 613 -494
55 -113 75 -211 76 -365 0 -196 -40 -339 -138 -485 -161 -243 -399 -382 -699
-407 -120 -10 -315 30 -433 90 -228 115 -395 314 -462 552 -29 104 -33 130
-33 236 0 244 82 454 242 619 146 152 295 226 548 274 41 8 209 -4 286 -20z"/>
</g>
</svg>
